<?xml version="1.0" encoding="UTF-8" standalone="no"?>
<svg
   xmlns:dc="http://purl.org/dc/elements/1.1/"
   xmlns:cc="http://creativecommons.org/ns#"
   xmlns:rdf="http://www.w3.org/1999/02/22-rdf-syntax-ns#"
   xmlns:svg="http://www.w3.org/2000/svg"
   xmlns="http://www.w3.org/2000/svg"
   xmlns:sodipodi="http://sodipodi.sourceforge.net/DTD/sodipodi-0.dtd"
   xmlns:inkscape="http://www.inkscape.org/namespaces/inkscape"
   sodipodi:docname="context-2.svg"
   inkscape:version="1.0.1 (3bc2e813f5, 2020-09-07)"
   id="svg8"
   version="1.1"
   viewBox="0 0 210.26459 167.82703"
   height="167.82703mm"
   width="210.26459mm">
  <defs
     id="defs2">
    <marker
       inkscape:stockid="Arrow2Mend"
       orient="auto"
       refY="0"
       refX="0"
       id="marker5339"
       style="overflow:visible"
       inkscape:isstock="true">
      <path
         id="path5337"
         style="fill:#000000;fill-opacity:1;fill-rule:evenodd;stroke:#000000;stroke-width:0.625;stroke-linejoin:round;stroke-opacity:1"
         d="M 8.7185878,4.0337352 -2.2072895,0.01601326 8.7185884,-4.0017078 c -1.7454984,2.3720609 -1.7354408,5.6174519 -6e-7,8.035443 z"
         transform="scale(-0.6)" />
    </marker>
    <marker
       inkscape:stockid="Arrow2Mend"
       orient="auto"
       refY="0"
       refX="0"
       id="marker5225"
       style="overflow:visible"
       inkscape:isstock="true"
       inkscape:collect="always">
      <path
         id="path5223"
         style="fill:#000000;fill-opacity:1;fill-rule:evenodd;stroke:#000000;stroke-width:0.625;stroke-linejoin:round;stroke-opacity:1"
         d="M 8.7185878,4.0337352 -2.2072895,0.01601326 8.7185884,-4.0017078 c -1.7454984,2.3720609 -1.7354408,5.6174519 -6e-7,8.035443 z"
         transform="scale(-0.6)" />
    </marker>
    <marker
       inkscape:stockid="Arrow2Mend"
       orient="auto"
       refY="0"
       refX="0"
       id="marker5117"
       style="overflow:visible"
       inkscape:isstock="true"
       inkscape:collect="always">
      <path
         id="path5115"
         style="fill:#000000;fill-opacity:1;fill-rule:evenodd;stroke:#000000;stroke-width:0.625;stroke-linejoin:round;stroke-opacity:1"
         d="M 8.7185878,4.0337352 -2.2072895,0.01601326 8.7185884,-4.0017078 c -1.7454984,2.3720609 -1.7354408,5.6174519 -6e-7,8.035443 z"
         transform="scale(-0.6)" />
    </marker>
    <marker
       inkscape:stockid="Arrow2Mend"
       orient="auto"
       refY="0"
       refX="0"
       id="marker3129"
       style="overflow:visible"
       inkscape:isstock="true"
       inkscape:collect="always">
      <path
         id="path3127"
         style="fill:#000000;fill-opacity:1;fill-rule:evenodd;stroke:#000000;stroke-width:0.625;stroke-linejoin:round;stroke-opacity:1"
         d="M 8.7185878,4.0337352 -2.2072895,0.01601326 8.7185884,-4.0017078 c -1.7454984,2.3720609 -1.7354408,5.6174519 -6e-7,8.035443 z"
         transform="scale(-0.6)" />
    </marker>
    <marker
       inkscape:stockid="Arrow2Mstart"
       orient="auto"
       refY="0"
       refX="0"
       id="marker1705"
       style="overflow:visible"
       inkscape:isstock="true">
      <path
         id="path1703"
         style="fill:#555753;fill-opacity:1;fill-rule:evenodd;stroke:#555753;stroke-width:0.625;stroke-linejoin:round;stroke-opacity:1"
         d="M 8.7185878,4.0337352 -2.2072895,0.01601326 8.7185884,-4.0017078 c -1.7454984,2.3720609 -1.7354408,5.6174519 -6e-7,8.035443 z"
         transform="scale(0.6)" />
    </marker>
    <marker
       inkscape:isstock="true"
       style="overflow:visible"
       id="Arrow1Mstart"
       refX="0"
       refY="0"
       orient="auto"
       inkscape:stockid="Arrow1Mstart">
      <path
         transform="matrix(0.4,0,0,0.4,4,0)"
         style="fill:#000000;fill-opacity:1;fill-rule:evenodd;stroke:#000000;stroke-width:1pt;stroke-opacity:1"
         d="M 0,0 5,-5 -12.5,0 5,5 Z"
         id="path1032" />
    </marker>
    <marker
       inkscape:stockid="Arrow2Mend"
       orient="auto"
       refY="0"
       refX="0"
       id="marker3205-3"
       style="overflow:visible"
       inkscape:isstock="true">
      <path
         id="path3203-1"
         style="fill:#000000;fill-opacity:1;fill-rule:evenodd;stroke:#000000;stroke-width:0.625;stroke-linejoin:round;stroke-opacity:1"
         d="M 8.7185878,4.0337352 -2.2072895,0.01601326 8.7185884,-4.0017078 c -1.7454984,2.3720609 -1.7354408,5.6174519 -6e-7,8.035443 z"
         transform="scale(-0.6)" />
    </marker>
    <marker
       inkscape:stockid="Arrow2Mend"
       orient="auto"
       refY="0"
       refX="0"
       id="marker2354"
       style="overflow:visible"
       inkscape:isstock="true">
      <path
         id="path2352"
         style="fill:#000000;fill-opacity:1;fill-rule:evenodd;stroke:#000000;stroke-width:0.625;stroke-linejoin:round;stroke-opacity:1"
         d="M 8.7185878,4.0337352 -2.2072895,0.01601326 8.7185884,-4.0017078 c -1.7454984,2.3720609 -1.7354408,5.6174519 -6e-7,8.035443 z"
         transform="scale(-0.6)" />
    </marker>
    <marker
       inkscape:stockid="Arrow2Mstart"
       orient="auto"
       refY="0"
       refX="0"
       id="marker1705-5"
       style="overflow:visible"
       inkscape:isstock="true">
      <path
         id="path1703-6"
         style="fill:#555753;fill-opacity:1;fill-rule:evenodd;stroke:#555753;stroke-width:0.625;stroke-linejoin:round;stroke-opacity:1"
         d="M 8.7185878,4.0337352 -2.2072895,0.01601326 8.7185884,-4.0017078 c -1.7454984,2.3720609 -1.7354408,5.6174519 -6e-7,8.035443 z"
         transform="scale(0.6)" />
    </marker>
    <marker
       inkscape:isstock="true"
       style="overflow:visible"
       id="Arrow1Mstart-1"
       refX="0"
       refY="0"
       orient="auto"
       inkscape:stockid="Arrow1Mstart">
      <path
         transform="matrix(0.4,0,0,0.4,4,0)"
         style="fill:#000000;fill-opacity:1;fill-rule:evenodd;stroke:#000000;stroke-width:1pt;stroke-opacity:1"
         d="M 0,0 5,-5 -12.5,0 5,5 Z"
         id="path1032-1" />
    </marker>
    <marker
       inkscape:stockid="Arrow2Mend"
       orient="auto"
       refY="0"
       refX="0"
       id="marker3205-3-5"
       style="overflow:visible"
       inkscape:isstock="true">
      <path
         id="path3203-1-9"
         style="fill:#000000;fill-opacity:1;fill-rule:evenodd;stroke:#000000;stroke-width:0.625;stroke-linejoin:round;stroke-opacity:1"
         d="M 8.7185878,4.0337352 -2.2072895,0.01601326 8.7185884,-4.0017078 c -1.7454984,2.3720609 -1.7354408,5.6174519 -6e-7,8.035443 z"
         transform="scale(-0.6)" />
    </marker>
  </defs>
  <sodipodi:namedview
     fit-margin-bottom="5"
     fit-margin-right="5"
     fit-margin-left="5"
     lock-margins="true"
     fit-margin-top="5"
     inkscape:window-maximized="1"
     inkscape:window-y="0"
     inkscape:window-x="0"
     inkscape:window-height="1080"
     inkscape:window-width="1920"
     showgrid="true"
     inkscape:document-rotation="0"
     inkscape:current-layer="layer1"
     inkscape:document-units="mm"
     inkscape:cy="227.53592"
     inkscape:cx="282.2427"
     inkscape:zoom="0.98994949"
     inkscape:pageshadow="2"
     inkscape:pageopacity="0.0"
     borderopacity="1.0"
     bordercolor="#666666"
     pagecolor="#ffffff"
     id="base">
    <inkscape:grid
       originy="-87.172964"
       originx="0.13229159"
       spacingy="1"
       spacingx="1"
       units="mm"
       id="grid842"
       type="xygrid" />
    <sodipodi:guide
       id="guide844"
       orientation="0,793.70079"
       position="0.13229305,242.17296" />
    <sodipodi:guide
       id="guide846"
       orientation="1122.5197,0"
       position="210.13228,242.17296" />
    <sodipodi:guide
       id="guide848"
       orientation="0,-793.70079"
       position="210.13228,-54.827034" />
    <sodipodi:guide
       id="guide850"
       orientation="-1122.5197,0"
       position="-14.867709,47.172967" />
  </sodipodi:namedview>
  <metadata
     id="metadata5">
    <rdf:RDF>
      <cc:Work
         rdf:about="">
        <dc:format>image/svg+xml</dc:format>
        <dc:type
           rdf:resource="http://purl.org/dc/dcmitype/StillImage" />
        <dc:title></dc:title>
      </cc:Work>
    </rdf:RDF>
  </metadata>
  <g
     transform="translate(0.1322931,-87.172967)"
     id="layer1"
     inkscape:groupmode="layer"
     inkscape:label="Layer 1">
    <g
       id="g4626">
      <path
         id="path2533-8-4"
         style="fill:#16376d;fill-opacity:0.898039;stroke:none;stroke-width:1.28;stroke-linejoin:bevel;stroke-miterlimit:4;stroke-dasharray:none;stroke-opacity:1"
         d="m 43.983958,107.17102 a 7.04,7.04 0 0 0 -7.01808,7.0399 7.04,7.04 0 0 0 3.03412,5.78908 c -0.59639,-0.0579 -1.18545,-0.10739 -1.75485,-0.11968 -1.39338,-0.0302 -2.69335,0.14445 -3.83911,0.86056 -5.2252,3.26574 -5.76028,9.60053 -6.40028,12.80053 -0.64,3.2 0,6.39961 0,6.39961 H 60.0058 c 0,0 0.64,-3.19961 0,-6.39961 -0.640002,-3.2 -1.174422,-9.53479 -6.399612,-12.80053 -1.58662,-0.99164 -3.52916,-0.93552 -5.59131,-0.74283 a 7.04,7.04 0 0 0 3.03146,-5.78709 7.04,7.04 0 0 0 -7.04056,-7.0399 7.04,7.04 0 0 0 -0.0218,0 z" />
      <text
         xml:space="preserve"
         style="font-style:normal;font-variant:normal;font-weight:600;font-stretch:normal;font-size:4.9389px;line-height:1.25;font-family:Muli;-inkscape-font-specification:'Muli, Semi-Bold';font-variant-ligatures:normal;font-variant-caps:normal;font-variant-numeric:normal;font-variant-east-asian:normal;text-align:center;letter-spacing:0px;word-spacing:0px;writing-mode:lr-tb;text-anchor:middle;fill:#ffffff;stroke-width:0.264583"
         x="43.911942"
         y="128.95113"
         id="text878-2-8-8-4"><tspan
           sodipodi:role="line"
           id="tspan4618"
           x="43.911942"
           y="128.95113">QA</tspan><tspan
           sodipodi:role="line"
           id="tspan4620"
           x="43.911942"
           y="135.12476">(user)</tspan></text>
    </g>
    <g
       id="g4676">
      <rect
         style="fill:#3465a4;fill-opacity:0.894851;stroke:none;stroke-width:0.2"
         id="rect868"
         width="45"
         height="35"
         x="80"
         y="155"
         ry="4" />
      <text
         xml:space="preserve"
         style="font-style:normal;font-variant:normal;font-weight:600;font-stretch:normal;font-size:4.93889px;line-height:1.25;font-family:Muli;-inkscape-font-specification:'Muli, Semi-Bold';font-variant-ligatures:normal;font-variant-caps:normal;font-variant-numeric:normal;font-variant-east-asian:normal;text-align:center;letter-spacing:0px;word-spacing:0px;writing-mode:lr-tb;text-anchor:middle;fill:#ffffff;stroke-width:0.264583"
         x="102.30244"
         y="172.59813"
         id="text858"><tspan
           sodipodi:role="line"
           id="tspan6793"
           x="102.30244"
           y="172.59813">MimirsEnv</tspan></text>
    </g>
    <g
       id="g4686">
      <rect
         style="fill:#16376d;fill-opacity:0.894851;stroke:none;stroke-width:0.2"
         id="rect868-0-3"
         width="50"
         height="25"
         x="77.5"
         y="225"
         ry="4" />
      <text
         xml:space="preserve"
         style="font-style:normal;font-variant:normal;font-weight:600;font-stretch:normal;font-size:4.93889px;line-height:1.25;font-family:Muli;-inkscape-font-specification:'Muli, Semi-Bold';font-variant-ligatures:normal;font-variant-caps:normal;font-variant-numeric:normal;font-variant-east-asian:normal;text-align:center;letter-spacing:0px;word-spacing:0px;writing-mode:lr-tb;text-anchor:middle;fill:#ffffff;stroke-width:0.264583"
         x="103.30244"
         y="233.62076"
         id="text858-3-1"><tspan
           sodipodi:role="line"
           id="tspan3105"
           x="103.30244"
           y="233.62076">Data Source</tspan><tspan
           sodipodi:role="line"
           id="tspan3107"
           x="103.30244"
           y="239.79437">(OSM, Bano, ...)</tspan></text>
    </g>
    <path
       style="fill:none;stroke:#000000;stroke-width:0.264583px;stroke-linecap:butt;stroke-linejoin:miter;stroke-opacity:1;marker-end:url(#marker3129)"
       d="m 99.999996,190 v 10 m 0,15 v 10"
       id="path3125"
       sodipodi:nodetypes="cccc" />
    <text
       xml:space="preserve"
       style="font-weight:600;font-size:4.9389px;line-height:1.25;font-family:Muli;-inkscape-font-specification:'Muli, Semi-Bold';text-align:center;letter-spacing:0px;word-spacing:0px;writing-mode:lr-tb;text-anchor:middle;stroke-width:0.264583"
       x="99.698441"
       y="205.99303"
       id="text3169"><tspan
         sodipodi:role="line"
         x="99.698441"
         y="205.99303"
         style="text-align:center;text-anchor:middle;stroke-width:0.264583"
         id="tspan3171">Download</tspan><tspan
         sodipodi:role="line"
         x="99.698441"
         y="212.16666"
         style="text-align:center;text-anchor:middle;stroke-width:0.264583"
         id="tspan3175">data from</tspan></text>
    <text
       xml:space="preserve"
       style="font-style:normal;font-variant:normal;font-weight:600;font-stretch:normal;font-size:4.9389px;line-height:1.25;font-family:Muli;-inkscape-font-specification:'Muli, Semi-Bold';font-variant-ligatures:normal;font-variant-caps:normal;font-variant-numeric:normal;font-variant-east-asian:normal;text-align:center;letter-spacing:0px;word-spacing:0px;writing-mode:lr-tb;text-anchor:middle;fill:#ffffff;stroke-width:0.264583"
       x="162.50246"
       y="123.25163"
       id="text878-2-8"><tspan
         sodipodi:role="line"
         id="tspan4903"
         x="162.50246"
         y="123.25163">DevOps</tspan><tspan
         sodipodi:role="line"
         id="tspan4905"
         x="162.50246"
         y="129.42526">(user)</tspan></text>
    <path
       style="fill:none;stroke:#000000;stroke-width:0.264583px;stroke-linecap:butt;stroke-linejoin:miter;stroke-opacity:1;marker-end:url(#marker5117)"
       d="m 44.999998,140 v 5.41912 m 0,19.58088 v 5 c 0,5 0,5 5,5 h 30"
       id="path5113"
       sodipodi:nodetypes="cccccc" />
    <path
       style="fill:none;stroke:#000000;stroke-width:0.264583px;stroke-linecap:butt;stroke-linejoin:miter;stroke-opacity:1;marker-end:url(#marker5225)"
       d="m 99.999998,125 v 5 m 0,20 -2e-6,5"
       id="path5221"
       sodipodi:nodetypes="cccc" />
    <path
       style="fill:none;stroke:#000000;stroke-width:0.264583px;stroke-linecap:butt;stroke-linejoin:miter;stroke-opacity:1;marker-end:url(#marker5339)"
       d="m 160,135 v 10 m 0,20 v 5 c 0,5 0,5 -5,5 h -30"
       id="path5335"
       sodipodi:nodetypes="cccccc" />
    <text
       xml:space="preserve"
       style="font-style:normal;font-variant:normal;font-weight:600;font-stretch:normal;font-size:4.9389px;line-height:1.25;font-family:Muli;-inkscape-font-specification:'Muli, Semi-Bold';font-variant-ligatures:normal;font-variant-caps:normal;font-variant-numeric:normal;font-variant-east-asian:normal;text-align:center;letter-spacing:0px;word-spacing:0px;writing-mode:lr-tb;text-anchor:middle;stroke-width:0.264583"
       x="157.33948"
       y="153.68132"
       id="text3169-3"><tspan
         sodipodi:role="line"
         id="tspan6864"
         x="157.33948"
         y="153.68132">Monitors Import</tspan><tspan
         sodipodi:role="line"
         id="tspan6866"
         x="157.33948"
         y="159.85495">and Statuses</tspan></text>
    <text
       xml:space="preserve"
       style="font-style:normal;font-variant:normal;font-weight:600;font-stretch:normal;font-size:4.9389px;line-height:1.25;font-family:Muli;-inkscape-font-specification:'Muli, Semi-Bold';font-variant-ligatures:normal;font-variant-caps:normal;font-variant-numeric:normal;font-variant-east-asian:normal;text-align:center;letter-spacing:0px;word-spacing:0px;writing-mode:lr-tb;text-anchor:middle;stroke-width:0.264583"
       x="102.34442"
       y="138.71342"
       id="text3169-3-6"><tspan
         sodipodi:role="line"
         id="tspan6929"
         x="102.34442"
         y="138.71342">Evaluates new</tspan><tspan
         sodipodi:role="line"
         id="tspan6931"
         x="102.34442"
         y="144.88705">Models</tspan></text>
    <text
       xml:space="preserve"
       style="font-style:normal;font-variant:normal;font-weight:600;font-stretch:normal;font-size:4.9389px;line-height:1.25;font-family:Muli;-inkscape-font-specification:'Muli, Semi-Bold';font-variant-ligatures:normal;font-variant-caps:normal;font-variant-numeric:normal;font-variant-east-asian:normal;text-align:center;letter-spacing:0px;word-spacing:0px;writing-mode:lr-tb;text-anchor:middle;stroke-width:0.264583"
       x="47.344418"
       y="153.71342"
       id="text3169-3-6-4"><tspan
         sodipodi:role="line"
         id="tspan6929-6"
         x="47.344418"
         y="153.71342">Evaluates new</tspan><tspan
         sodipodi:role="line"
         id="tspan6931-2"
         x="47.344418"
         y="159.88705">Models</tspan></text>
    <g
       id="g2603"
       transform="translate(16.98512,120.00195)">
      <path
         id="path2533-8"
         style="fill:#16376d;fill-opacity:0.898039;stroke:none;stroke-width:1.28;stroke-linejoin:bevel;stroke-miterlimit:4;stroke-dasharray:none;stroke-opacity:1"
         d="m 83.983958,-27.828983 a 7.04,7.04 0 0 0 -7.01808,7.039903 7.04,7.04 0 0 0 3.03412,5.789081 c -0.59639,-0.05786 -1.18545,-0.107392 -1.75485,-0.11968 -1.39338,-0.03021 -2.69335,0.144448 -3.83911,0.860556 -5.2252,3.265741 -5.76028,9.600538 -6.40028,12.800538 -0.64,3.2 0,6.399603 0,6.399603 H 100.0058 c 0,0 0.64,-3.199603 0,-6.399603 -0.640002,-3.2 -1.174422,-9.534797 -6.399612,-12.800538 -1.58662,-0.991641 -3.52916,-0.935513 -5.59131,-0.742822 a 7.04,7.04 0 0 0 3.03146,-5.787097 7.04,7.04 0 0 0 -7.04056,-7.039902 7.04,7.04 0 0 0 -0.0218,0 z" />
      <text
         xml:space="preserve"
         style="font-style:normal;font-variant:normal;font-weight:600;font-stretch:normal;font-size:4.9389px;line-height:1.25;font-family:Muli;-inkscape-font-specification:'Muli, Semi-Bold';font-variant-ligatures:normal;font-variant-caps:normal;font-variant-numeric:normal;font-variant-east-asian:normal;text-align:center;letter-spacing:0px;word-spacing:0px;writing-mode:lr-tb;text-anchor:middle;fill:#ffffff;stroke-width:0.264583"
         x="83.911942"
         y="-6.0488706"
         id="text878-2-8-8"><tspan
           sodipodi:role="line"
           id="tspan2595"
           x="83.911942"
           y="-6.0488706">Dev</tspan><tspan
           sodipodi:role="line"
           id="tspan2597"
           x="83.911942"
           y="0.12475443">(user)</tspan></text>
    </g>
    <g
       id="g4671"
       transform="translate(4.9999985,24.999998)">
      <path
         id="path2533-8-1"
         style="fill:#16376d;fill-opacity:0.898039;stroke:none;stroke-width:1.28;stroke-linejoin:bevel;stroke-miterlimit:4;stroke-dasharray:none;stroke-opacity:1"
         d="m 155.96908,77.172967 a 7.04,7.04 0 0 0 -7.01808,7.039903 7.04,7.04 0 0 0 3.03412,5.789081 c -0.59639,-0.05786 -1.18545,-0.107392 -1.75485,-0.11968 -1.39338,-0.03021 -2.69335,0.144448 -3.83911,0.860556 -5.2252,3.265741 -5.76028,9.600533 -6.40028,12.800533 -0.64,3.2 0,6.39961 0,6.39961 h 32.00004 c 0,0 0.64,-3.19961 0,-6.39961 -0.64,-3.2 -1.17442,-9.534792 -6.39961,-12.800533 C 164.00469,89.751186 162.06215,89.807314 160,90.000005 a 7.04,7.04 0 0 0 3.03146,-5.787097 7.04,7.04 0 0 0 -7.04056,-7.039902 7.04,7.04 0 0 0 -0.0218,0 z" />
      <text
         xml:space="preserve"
         style="font-style:normal;font-variant:normal;font-weight:600;font-stretch:normal;font-size:4.9389px;line-height:1.25;font-family:Muli;-inkscape-font-specification:'Muli, Semi-Bold';font-variant-ligatures:normal;font-variant-caps:normal;font-variant-numeric:normal;font-variant-east-asian:normal;text-align:center;letter-spacing:0px;word-spacing:0px;writing-mode:lr-tb;text-anchor:middle;fill:#ffffff;stroke-width:0.264583"
         x="155.89706"
         y="98.953079"
         id="text878-2-8-8-7"><tspan
           sodipodi:role="line"
           id="tspan4663"
           x="155.89706"
           y="98.953079">DevOps</tspan><tspan
           sodipodi:role="line"
           id="tspan4665"
           x="155.89706"
           y="105.1267">(user)</tspan></text>
    </g>
  </g>
</svg>
