<?xml version="1.0" encoding="UTF-8" standalone="no"?>
<!-- Created with Inkscape (http://www.inkscape.org/) -->

<svg
   xmlns:dc="http://purl.org/dc/elements/1.1/"
   xmlns:cc="http://creativecommons.org/ns#"
   xmlns:rdf="http://www.w3.org/1999/02/22-rdf-syntax-ns#"
   xmlns:svg="http://www.w3.org/2000/svg"
   xmlns="http://www.w3.org/2000/svg"
   xmlns:xlink="http://www.w3.org/1999/xlink"
   xmlns:sodipodi="http://sodipodi.sourceforge.net/DTD/sodipodi-0.dtd"
   xmlns:inkscape="http://www.inkscape.org/namespaces/inkscape"
   width="159.84314mm"
   height="106.57293mm"
   viewBox="0 0 159.84314 106.57293"
   version="1.1"
   id="svg8"
   inkscape:version="0.92.4 5da689c313, 2019-01-14"
   sodipodi:docname="mimir.svg">
  <defs
     id="defs2">
    <marker
       inkscape:stockid="Arrow2Send"
       orient="auto"
       refY="0.0"
       refX="0.0"
       id="marker5677"
       style="overflow:visible;"
       inkscape:isstock="true">
      <path
         id="path5675"
         style="fill-rule:evenodd;stroke-width:0.625;stroke-linejoin:round;stroke:#000000;stroke-opacity:1;fill:#000000;fill-opacity:1"
         d="M 8.7185878,4.0337352 L -2.2072895,0.016013256 L 8.7185884,-4.0017078 C 6.9730900,-1.6296469 6.9831476,1.6157441 8.7185878,4.0337352 z "
         transform="scale(0.3) rotate(180) translate(-2.3,0)" />
    </marker>
    <marker
       inkscape:isstock="true"
       style="overflow:visible;"
       id="marker5605"
       refX="0.0"
       refY="0.0"
       orient="auto"
       inkscape:stockid="Arrow2Send"
       inkscape:collect="always">
      <path
         transform="scale(0.3) rotate(180) translate(-2.3,0)"
         d="M 8.7185878,4.0337352 L -2.2072895,0.016013256 L 8.7185884,-4.0017078 C 6.9730900,-1.6296469 6.9831476,1.6157441 8.7185878,4.0337352 z "
         style="fill-rule:evenodd;stroke-width:0.625;stroke-linejoin:round;stroke:#000000;stroke-opacity:1;fill:#000000;fill-opacity:1"
         id="path5603" />
    </marker>
    <marker
       inkscape:stockid="Arrow2Send"
       orient="auto"
       refY="0.0"
       refX="0.0"
       id="marker5539"
       style="overflow:visible;"
       inkscape:isstock="true"
       inkscape:collect="always">
      <path
         id="path5537"
         style="fill-rule:evenodd;stroke-width:0.625;stroke-linejoin:round;stroke:#000000;stroke-opacity:1;fill:#000000;fill-opacity:1"
         d="M 8.7185878,4.0337352 L -2.2072895,0.016013256 L 8.7185884,-4.0017078 C 6.9730900,-1.6296469 6.9831476,1.6157441 8.7185878,4.0337352 z "
         transform="scale(0.3) rotate(180) translate(-2.3,0)" />
    </marker>
    <marker
       inkscape:isstock="true"
       style="overflow:visible;"
       id="marker5479"
       refX="0.0"
       refY="0.0"
       orient="auto"
       inkscape:stockid="Arrow2Send"
       inkscape:collect="always">
      <path
         transform="scale(0.3) rotate(180) translate(-2.3,0)"
         d="M 8.7185878,4.0337352 L -2.2072895,0.016013256 L 8.7185884,-4.0017078 C 6.9730900,-1.6296469 6.9831476,1.6157441 8.7185878,4.0337352 z "
         style="fill-rule:evenodd;stroke-width:0.625;stroke-linejoin:round;stroke:#000000;stroke-opacity:1;fill:#000000;fill-opacity:1"
         id="path5477" />
    </marker>
    <marker
       inkscape:stockid="Arrow2Send"
       orient="auto"
       refY="0.0"
       refX="0.0"
       id="marker5425"
       style="overflow:visible;"
       inkscape:isstock="true"
       inkscape:collect="always">
      <path
         id="path5423"
         style="fill-rule:evenodd;stroke-width:0.625;stroke-linejoin:round;stroke:#000000;stroke-opacity:1;fill:#000000;fill-opacity:1"
         d="M 8.7185878,4.0337352 L -2.2072895,0.016013256 L 8.7185884,-4.0017078 C 6.9730900,-1.6296469 6.9831476,1.6157441 8.7185878,4.0337352 z "
         transform="scale(0.3) rotate(180) translate(-2.3,0)" />
    </marker>
    <marker
       inkscape:isstock="true"
       style="overflow:visible;"
       id="marker5373"
       refX="0.0"
       refY="0.0"
       orient="auto"
       inkscape:stockid="Arrow2Send"
       inkscape:collect="always">
      <path
         transform="scale(0.3) rotate(180) translate(-2.3,0)"
         d="M 8.7185878,4.0337352 L -2.2072895,0.016013256 L 8.7185884,-4.0017078 C 6.9730900,-1.6296469 6.9831476,1.6157441 8.7185878,4.0337352 z "
         style="fill-rule:evenodd;stroke-width:0.625;stroke-linejoin:round;stroke:#000000;stroke-opacity:1;fill:#000000;fill-opacity:1"
         id="path5371" />
    </marker>
    <marker
       inkscape:stockid="Arrow2Send"
       orient="auto"
       refY="0.0"
       refX="0.0"
       id="Arrow2Send"
       style="overflow:visible;"
       inkscape:isstock="true"
       inkscape:collect="always">
      <path
         id="path5010"
         style="fill-rule:evenodd;stroke-width:0.625;stroke-linejoin:round;stroke:#000000;stroke-opacity:1;fill:#000000;fill-opacity:1"
         d="M 8.7185878,4.0337352 L -2.2072895,0.016013256 L 8.7185884,-4.0017078 C 6.9730900,-1.6296469 6.9831476,1.6157441 8.7185878,4.0337352 z "
         transform="scale(0.3) rotate(180) translate(-2.3,0)" />
    </marker>
    <marker
       inkscape:stockid="Arrow1Send"
       orient="auto"
       refY="0.0"
       refX="0.0"
       id="Arrow1Send"
       style="overflow:visible;"
       inkscape:isstock="true">
      <path
         id="path4992"
         d="M 0.0,0.0 L 5.0,-5.0 L -12.5,0.0 L 5.0,5.0 L 0.0,0.0 z "
         style="fill-rule:evenodd;stroke:#000000;stroke-width:1pt;stroke-opacity:1;fill:#000000;fill-opacity:1"
         transform="scale(0.2) rotate(180) translate(6,0)" />
    </marker>
    <marker
       inkscape:stockid="Arrow1Mend"
       orient="auto"
       refY="0.0"
       refX="0.0"
       id="Arrow1Mend"
       style="overflow:visible;"
       inkscape:isstock="true">
      <path
         id="path4986"
         d="M 0.0,0.0 L 5.0,-5.0 L -12.5,0.0 L 5.0,5.0 L 0.0,0.0 z "
         style="fill-rule:evenodd;stroke:#000000;stroke-width:1pt;stroke-opacity:1;fill:#000000;fill-opacity:1"
         transform="scale(0.4) rotate(180) translate(10,0)" />
    </marker>
    <filter
       style="color-interpolation-filters:sRGB"
       inkscape:label="Blur"
       id="filter834">
      <feGaussianBlur
         stdDeviation="2 2"
         result="blur"
         id="feGaussianBlur832" />
    </filter>
    <filter
       style="color-interpolation-filters:sRGB"
       inkscape:label="Blur"
       id="filter834-3">
      <feGaussianBlur
         stdDeviation="2 2"
         result="blur"
         id="feGaussianBlur832-7" />
    </filter>
    <filter
       style="color-interpolation-filters:sRGB"
       inkscape:label="Blur"
       id="filter834-3-6">
      <feGaussianBlur
         stdDeviation="2 2"
         result="blur"
         id="feGaussianBlur832-7-8" />
    </filter>
    <filter
       style="color-interpolation-filters:sRGB"
       inkscape:label="Blur"
       id="filter834-3-6-9">
      <feGaussianBlur
         stdDeviation="2 2"
         result="blur"
         id="feGaussianBlur832-7-8-5" />
    </filter>
    <filter
       style="color-interpolation-filters:sRGB"
       inkscape:label="Blur"
       id="filter834-3-6-9-7">
      <feGaussianBlur
         stdDeviation="2 2"
         result="blur"
         id="feGaussianBlur832-7-8-5-2" />
    </filter>
    <filter
       style="color-interpolation-filters:sRGB"
       inkscape:label="Blur"
       id="filter4915">
      <feGaussianBlur
         stdDeviation="2 2"
         result="blur"
         id="feGaussianBlur4913" />
    </filter>
    <style type="text/css">@import url('href="https://fonts.googleapis.com/css?family=Amatic+SC');</style>
  </defs>
  <sodipodi:namedview
     id="base"
     pagecolor="#ffffff"
     bordercolor="#666666"
     borderopacity="1.0"
     inkscape:pageopacity="0.0"
     inkscape:pageshadow="2"
     inkscape:zoom="0.98994949"
     inkscape:cx="212.2355"
     inkscape:cy="186.97564"
     inkscape:document-units="mm"
     inkscape:current-layer="layer1"
     showgrid="true"
     inkscape:window-width="1916"
     inkscape:window-height="1060"
     inkscape:window-x="0"
     inkscape:window-y="18"
     inkscape:window-maximized="0"
     fit-margin-top="5"
     fit-margin-left="5"
     fit-margin-right="5"
     fit-margin-bottom="5">
    <inkscape:grid
       type="xygrid"
       id="grid815"
       originx="-38.656243"
       originy="-124.64582" />
  </sodipodi:namedview>
  <metadata
     id="metadata5">
    <rdf:RDF>
      <cc:Work
         rdf:about="">
        <dc:format>image/svg+xml</dc:format>
        <dc:type
           rdf:resource="http://purl.org/dc/dcmitype/StillImage" />
        <dc:title></dc:title>
      </cc:Work>
    </rdf:RDF>
  </metadata>
  <g
     inkscape:label="Layer 1"
     inkscape:groupmode="layer"
     id="layer1"
     transform="translate(-38.656244,-65.781247)">
    <a
       id="a1163"
       xlink:href="http://osm.org"
       target="osm"
       xlink:title="OSM"
       xlink:show="OSM">
      <g
         transform="translate(-2.6458384,-23.812503)"
         id="g840">
        <rect
           style="fill:#ff4141;fill-opacity:1;stroke:none;stroke-width:1;stroke-miterlimit:4;stroke-dasharray:none;stroke-opacity:1"
           id="rect815"
           width="18.520834"
           height="15.875"
           x="46.302082"
           y="94.59375"
           ry="2.5431327e-06" />
        <rect
           style="fill:#ff4141;fill-opacity:1;stroke:none;stroke-width:1;stroke-miterlimit:4;stroke-dasharray:none;stroke-opacity:1;filter:url(#filter834)"
           id="rect815-2"
           width="15.875003"
           height="13.229177"
           x="48.947918"
           y="97.239586"
           ry="2.5431327e-06" />
        <text
           xml:space="preserve"
           style="font-style:normal;font-variant:normal;font-weight:bold;font-stretch:normal;font-size:7.05555534px;line-height:1.25;font-family:'Amatic SC';-inkscape-font-specification:'Amatic SC, Bold';font-variant-ligatures:normal;font-variant-caps:normal;font-variant-numeric:normal;font-feature-settings:normal;text-align:start;letter-spacing:0px;word-spacing:0px;writing-mode:lr-tb;text-anchor:start;fill:#000000;fill-opacity:1;stroke:none;stroke-width:0.26458332"
           x="51.393635"
           y="105.03069"
           id="text819"><tspan
             sodipodi:role="line"
             id="tspan817"
             x="51.393635"
             y="105.03069"
             style="font-style:normal;font-variant:normal;font-weight:bold;font-stretch:normal;font-size:7.05555534px;font-family:'Amatic SC';-inkscape-font-specification:'Amatic SC, Bold';font-variant-ligatures:normal;font-variant-caps:normal;font-variant-numeric:normal;font-feature-settings:normal;text-align:start;writing-mode:lr-tb;text-anchor:start;stroke-width:0.26458332">OSM</tspan></text>
      </g>
    </a>
    <g
       id="g885">
      <rect
         ry="2.5431327e-06"
         y="90.625"
         x="43.65625"
         height="15.875"
         width="18.520834"
         id="rect815-9"
         style="fill:#ff4141;fill-opacity:1;stroke:none;stroke-width:1;stroke-miterlimit:4;stroke-dasharray:none;stroke-opacity:1" />
      <rect
         ry="2.5431327e-06"
         y="93.270836"
         x="46.302086"
         height="13.229177"
         width="15.875003"
         id="rect815-2-2"
         style="fill:#ff4141;fill-opacity:1;stroke:none;stroke-width:1;stroke-miterlimit:4;stroke-dasharray:none;stroke-opacity:1;filter:url(#filter834-3)" />
      <text
         id="text819-2"
         y="101.19422"
         x="50.480846"
         style="font-style:normal;font-variant:normal;font-weight:bold;font-stretch:normal;font-size:7.05555534px;line-height:1.25;font-family:'Amatic SC';-inkscape-font-specification:'Amatic SC, Bold';font-variant-ligatures:normal;font-variant-caps:normal;font-variant-numeric:normal;font-feature-settings:normal;text-align:start;letter-spacing:0px;word-spacing:0px;writing-mode:lr-tb;text-anchor:start;fill:#000000;fill-opacity:1;stroke:none;stroke-width:0.26458332"
         xml:space="preserve"><tspan
           y="101.19422"
           x="50.480846"
           id="tspan879"
           sodipodi:role="line">OA</tspan></text>
    </g>
    <g
       id="g930">
      <rect
         ry="2.5431327e-06"
         y="110.46875"
         x="43.656246"
         height="15.875"
         width="18.520834"
         id="rect815-9-2"
         style="fill:#ff4141;fill-opacity:1;stroke:none;stroke-width:1;stroke-miterlimit:4;stroke-dasharray:none;stroke-opacity:1" />
      <rect
         ry="2.5431327e-06"
         y="113.11459"
         x="46.302082"
         height="13.229177"
         width="15.875003"
         id="rect815-2-2-6"
         style="fill:#ff4141;fill-opacity:1;stroke:none;stroke-width:1;stroke-miterlimit:4;stroke-dasharray:none;stroke-opacity:1;filter:url(#filter834-3-6)" />
      <text
         id="text819-2-6"
         y="121.07677"
         x="48.519455"
         style="font-style:normal;font-variant:normal;font-weight:bold;font-stretch:normal;font-size:7.05555534px;line-height:1.25;font-family:'Amatic SC';-inkscape-font-specification:'Amatic SC, Bold';font-variant-ligatures:normal;font-variant-caps:normal;font-variant-numeric:normal;font-feature-settings:normal;text-align:start;letter-spacing:0px;word-spacing:0px;writing-mode:lr-tb;text-anchor:start;fill:#000000;fill-opacity:1;stroke:none;stroke-width:0.26458332"
         xml:space="preserve"><tspan
           y="121.07677"
           x="48.519455"
           id="tspan924"
           sodipodi:role="line">NTFS</tspan></text>
    </g>
    <g
       id="g975">
      <rect
         ry="2.5431327e-06"
         y="130.31247"
         x="43.656246"
         height="15.875"
         width="18.520834"
         id="rect815-9-2-4"
         style="fill:#ff4141;fill-opacity:1;stroke:none;stroke-width:1;stroke-miterlimit:4;stroke-dasharray:none;stroke-opacity:1" />
      <rect
         ry="2.5431327e-06"
         y="132.95831"
         x="46.302082"
         height="13.229177"
         width="15.875003"
         id="rect815-2-2-6-8"
         style="fill:#ff4141;fill-opacity:1;stroke:none;stroke-width:1;stroke-miterlimit:4;stroke-dasharray:none;stroke-opacity:1;filter:url(#filter834-3-6-9)" />
      <text
         id="text819-2-6-7"
         y="140.82878"
         x="47.756241"
         style="font-style:normal;font-variant:normal;font-weight:bold;font-stretch:normal;font-size:7.05555534px;line-height:1.25;font-family:'Amatic SC';-inkscape-font-specification:'Amatic SC, Bold';font-variant-ligatures:normal;font-variant-caps:normal;font-variant-numeric:normal;font-feature-settings:normal;text-align:start;letter-spacing:0px;word-spacing:0px;writing-mode:lr-tb;text-anchor:start;fill:#000000;fill-opacity:1;stroke:none;stroke-width:0.26458332"
         xml:space="preserve"><tspan
           y="140.82878"
           x="47.756241"
           id="tspan969"
           sodipodi:role="line">Bano</tspan></text>
    </g>
    <g
       id="g1024">
      <rect
         ry="2.5431327e-06"
         y="150.15623"
         x="43.656246"
         height="15.875"
         width="18.520834"
         id="rect815-9-2-4-2"
         style="fill:#ff4141;fill-opacity:1;stroke:none;stroke-width:1;stroke-miterlimit:4;stroke-dasharray:none;stroke-opacity:1" />
      <rect
         ry="2.5431327e-06"
         y="152.80208"
         x="46.302082"
         height="13.229177"
         width="15.875003"
         id="rect815-2-2-6-8-2"
         style="fill:#ff4141;fill-opacity:1;stroke:none;stroke-width:1;stroke-miterlimit:4;stroke-dasharray:none;stroke-opacity:1;filter:url(#filter834-3-6-9-7)" />
      <text
         id="text819-2-6-7-6"
         y="159.93947"
         x="46.347763"
         style="font-style:normal;font-variant:normal;font-weight:bold;font-stretch:normal;font-size:5.64444447px;line-height:1.25;font-family:'Amatic SC';-inkscape-font-specification:'Amatic SC, Bold';font-variant-ligatures:normal;font-variant-caps:normal;font-variant-numeric:normal;font-feature-settings:normal;text-align:start;letter-spacing:0px;word-spacing:0px;writing-mode:lr-tb;text-anchor:start;fill:#000000;fill-opacity:1;stroke:none;stroke-width:0.26458332"
         xml:space="preserve"><tspan
           y="159.93947"
           x="46.347763"
           id="tspan1018"
           sodipodi:role="line">other...</tspan></text>
    </g>
    <g
       id="g1084"
       transform="matrix(0.26458333,0,0,0.26458333,72.30734,98.37015)">
      <g
         id="g1082"
         transform="matrix(0.1,0,0,-0.1,0,502)">
        <path
           id="path1080"
           d="m 1316.2542,4919.1926 c -150.8843,-12.5319 -256.8347,-37.5958 -348.62405,-82.8082 -51.47836,-25.3284 -77.08523,-42.7616 -106.2289,-72.1838 -26.4145,-26.693 -38.68186,-45.2124 -50.11375,-74.3561 L 804.2,4671.5897 v -434.412 -434.4259 l 6.26596,-16.3472 c 40.311,-106.4934 191.20924,-189.0231 399.55934,-218.9883 65.0964,-9.2597 103.7782,-11.9889 178.3988,-11.9889 39.768,0 87.431,1.6292 106.2289,3.2723 251.1257,23.9777 426.5308,108.415 471.7432,227.7049 l 6.266,16.3472 v 434.4259 434.4259 l -7.0736,18.2549 c -11.4458,29.1436 -23.6993,47.663 -50.1138,74.356 -29.1436,29.4083 -54.7505,46.8415 -106.2289,72.1839 -78.9928,38.9464 -176.4912,64.8178 -292.8013,77.6282 -37.5818,4.3444 -169.9467,7.6166 -200.1904,5.166 z m 137.5587,-56.9367 c 211.3578,-7.3521 406.6468,-84.4373 452.9453,-178.3988 7.8951,-15.7902 8.7166,-19.884 8.7166,-42.2187 0,-20.7055 -1.0861,-26.9575 -7.0735,-39.4894 -17.6979,-37.5819 -58.8304,-72.727 -120.933,-103.4998 -73.8131,-36.2311 -156.0642,-58.8304 -267.7375,-72.7269 -53.1075,-6.809 -209.4502,-6.809 -262.5577,0 -111.6733,13.8965 -193.9244,36.4958 -267.73743,72.7269 -62.10262,30.7728 -103.22121,65.9179 -120.93301,103.4998 -5.98745,12.5319 -7.08749,18.7978 -7.08749,39.4894 0,22.3347 0.82153,26.4145 8.71663,42.2187 47.38458,96.4261 239.4014,170.2391 466.5494,179.4988 26.1499,1.0861 54.4721,1.6292 62.6457,1.0861 8.1736,-0.2785 32.6944,-1.3646 54.486,-2.1861 z M 920.23165,4472.7778 c 183.57865,-113.8455 517.77705,-143.2677 778.42705,-68.0901 81.9866,23.4208 152.7919,58.5658 201.2766,99.4199 l 19.6054,16.6117 v -73.0053 c -0.2784,-86.0665 -1.9076,-103.4998 -13.3534,-127.7421 -10.0813,-21.5131 -43.0402,-55.8366 -71.0838,-74.356 -38.9465,-25.6069 -103.7782,-53.1075 -163.4163,-69.7332 -172.1328,-47.3985 -394.3934,-47.3985 -566.5262,0 -59.652,16.6118 -124.46981,44.1263 -163.41623,69.7332 -28.05758,18.5194 -61.01652,52.8429 -71.08383,74.356 -11.43189,24.2423 -13.07497,41.6756 -13.33953,127.7421 v 72.9914 l 19.88399,-16.6117 c 10.62426,-9.2597 30.22976,-23.1423 43.02625,-31.3159 z m -53.1075,-238.5938 c 7.63054,-8.4521 43.58322,-35.4097 62.36719,-46.577 81.98656,-48.7491 200.19046,-82.7942 340.46436,-98.0553 43.3048,-4.6229 193.646,-4.6229 236.9647,0 140.26,15.2611 258.4778,49.3062 340.4504,98.0553 18.7979,11.1673 54.7506,38.1249 62.3672,46.577 2.9937,2.9937 6.266,5.7229 7.6305,5.7229 2.9938,0 2.7292,-137.0017 -0.2784,-162.8732 -11.4319,-99.1414 -170.7683,-181.9356 -402.0101,-209.4501 -57.7443,-6.809 -195.5536,-6.809 -253.2979,0 -229.5987,27.236 -389.21354,109.7657 -401.74544,207.821 -3.27222,23.9638 -3.53679,164.5162 -0.54305,164.5162 1.36458,-0.014 4.6368,-2.7431 7.63054,-5.7368 z m 21.79162,-297.4242 c 88.7956,-72.1839 259.29933,-121.7546 444.22863,-129.6497 200.7335,-8.1736 391.3997,29.1437 511.5112,100.506 23.9638,14.4396 34.3235,21.7916 67.004,48.7492 l 7.8951,6.5305 v -62.3672 c 0,-34.3235 -1.0861,-69.4547 -2.7292,-78.1713 -8.1736,-50.1138 -50.6568,-93.697 -129.3712,-132.6434 -73.5345,-36.2172 -153.6134,-58.0089 -266.9159,-72.7269 -54.7506,-6.809 -209.4501,-6.809 -264.2007,0 -113.3025,14.7041 -193.3814,36.4957 -266.91595,72.7269 -78.71438,38.9464 -121.19757,82.5296 -129.37117,132.6434 -1.62915,8.7166 -2.72917,43.8478 -2.72917,78.1713 v 62.3672 l 7.89511,-6.5305 c 4.35833,-3.5368 14.98259,-12.2535 23.69925,-19.6055 z"
           inkscape:connector-curvature="0"
           style="stroke-width:0.13924354" />
      </g>
    </g>
    <text
       xml:space="preserve"
       style="font-style:normal;font-variant:normal;font-weight:bold;font-stretch:normal;font-size:7.05555534px;line-height:1.25;font-family:'Amatic SC';-inkscape-font-specification:'Amatic SC, Bold';font-variant-ligatures:normal;font-variant-caps:normal;font-variant-numeric:normal;font-feature-settings:normal;text-align:center;letter-spacing:0px;word-spacing:0px;writing-mode:lr-tb;text-anchor:middle;fill:#000000;fill-opacity:1;stroke:none;stroke-width:0.26458332"
       x="109.5751"
       y="147.22972"
       id="text1149"><tspan
         sodipodi:role="line"
         id="tspan1153"
         x="109.5751"
         y="147.22972">Elastic</tspan><tspan
         sodipodi:role="line"
         id="tspan1155"
         x="109.5751"
         y="156.04916">Search</tspan><tspan
         sodipodi:role="line"
         id="tspan1157"
         x="109.5751"
         y="164.86861"></tspan></text>
    <g
       id="g4927"
       transform="translate(-23.8125,-18.520813)">
      <rect
         ry="2.5431327e-06"
         y="106.5"
         x="164.04167"
         height="68.791679"
         width="21.166662"
         id="rect4892-8"
         style="fill:#ff4141;fill-opacity:1;stroke:none;stroke-width:1.15470064;stroke-miterlimit:4;stroke-dasharray:none;stroke-opacity:1;filter:url(#filter4915)" />
      <g
         id="g4920">
        <rect
           style="fill:#ff4141;fill-opacity:1;stroke:none;stroke-width:1.15470064;stroke-miterlimit:4;stroke-dasharray:none;stroke-opacity:1"
           id="rect4892"
           width="21.166672"
           height="68.791664"
           x="161.39583"
           y="103.85416"
           ry="2.5431327e-06" />
        <text
           xml:space="preserve"
           style="font-style:normal;font-variant:normal;font-weight:bold;font-stretch:normal;font-size:7.05555534px;line-height:1.25;font-family:'Amatic SC';-inkscape-font-specification:'Amatic SC, Bold';font-variant-ligatures:normal;font-variant-caps:normal;font-variant-numeric:normal;font-feature-settings:normal;text-align:start;letter-spacing:0px;word-spacing:0px;writing-mode:lr-tb;text-anchor:start;fill:#000000;fill-opacity:1;stroke:none;stroke-width:0.26458332"
           x="167.09868"
           y="138.34744"
           id="text4896"><tspan
             sodipodi:role="line"
             id="tspan4894"
             x="167.09868"
             y="138.34744"
             style="stroke-width:0.26458332">BRAGi</tspan></text>
      </g>
    </g>
    <g
       id="g4944"
       transform="translate(-5.2916667,-2.64583)">
      <circle
         r="5.2916665"
         cy="111.79166"
         cx="190.5"
         id="path4929"
         style="fill:none;fill-opacity:1;stroke:#000000;stroke-width:1;stroke-miterlimit:4;stroke-dasharray:none;stroke-opacity:1" />
      <path
         inkscape:connector-curvature="0"
         id="path4931"
         d="m 190.5,117.08333 v 15.875 0 0"
         style="fill:none;stroke:#000000;stroke-width:1;stroke-linecap:butt;stroke-linejoin:miter;stroke-miterlimit:4;stroke-dasharray:none;stroke-opacity:1" />
      <path
         inkscape:connector-curvature="0"
         id="path4933"
         d="m 185.20833,143.54167 5.29167,-10.58334 5.29167,10.58334"
         style="fill:none;stroke:#000000;stroke-width:1;stroke-linecap:butt;stroke-linejoin:miter;stroke-miterlimit:4;stroke-dasharray:none;stroke-opacity:1" />
      <path
         inkscape:connector-curvature="0"
         id="path4935"
         d="m 190.5,119.72917 -7.9375,7.9375"
         style="fill:none;stroke:#000000;stroke-width:1;stroke-linecap:butt;stroke-linejoin:miter;stroke-miterlimit:4;stroke-dasharray:none;stroke-opacity:1" />
      <path
         inkscape:connector-curvature="0"
         id="path4937"
         d="m 190.5,119.72917 7.9375,7.9375"
         style="fill:none;stroke:#000000;stroke-width:1;stroke-linecap:butt;stroke-linejoin:miter;stroke-miterlimit:4;stroke-dasharray:none;stroke-opacity:1" />
    </g>
    <path
       style="fill:none;stroke:#000000;stroke-width:1;stroke-linecap:butt;stroke-linejoin:miter;stroke-opacity:1;stroke-miterlimit:4;stroke-dasharray:none;marker-end:url(#marker5425)"
       d="M 64.822917,78.718745 C 91.281249,101.20833 91.281249,101.20833 91.281249,101.20833"
       id="path5329"
       inkscape:connector-curvature="0" />
    <path
       style="fill:none;stroke:#000000;stroke-width:1;stroke-linecap:butt;stroke-linejoin:miter;stroke-opacity:1;marker-end:url(#Arrow2Send);stroke-miterlimit:4;stroke-dasharray:none"
       d="m 64.822917,98.562495 c 26.458332,9.260415 26.458332,9.260415 26.458332,9.260415"
       id="path5343"
       inkscape:connector-curvature="0" />
    <path
       style="fill:none;stroke:#000000;stroke-width:1;stroke-linecap:butt;stroke-linejoin:miter;stroke-opacity:1;stroke-miterlimit:4;stroke-dasharray:none;marker-end:url(#marker5373)"
       d="m 64.822917,118.40624 c 26.458332,0 26.458332,0 26.458332,0"
       id="path5363"
       inkscape:connector-curvature="0" />
    <path
       style="fill:none;stroke:#000000;stroke-width:1;stroke-linecap:butt;stroke-linejoin:miter;stroke-opacity:1;stroke-miterlimit:4;stroke-dasharray:none;marker-end:url(#marker5479)"
       d="M 64.822917,138.24999 91.281249,126.34374"
       id="path5469"
       inkscape:connector-curvature="0" />
    <path
       style="fill:none;stroke:#000000;stroke-width:1;stroke-linecap:butt;stroke-linejoin:miter;stroke-opacity:1;stroke-miterlimit:4;stroke-dasharray:none;marker-end:url(#marker5539)"
       d="m 64.822917,159.41666 26.458332,-23.8125"
       id="path5529"
       inkscape:connector-curvature="0" />
    <path
       style="fill:none;stroke:#000000;stroke-width:1;stroke-linecap:butt;stroke-linejoin:miter;stroke-opacity:1;stroke-miterlimit:4;stroke-dasharray:none;marker-end:url(#marker5605)"
       d="m 174.625,117.08333 c -7.9375,0 -7.9375,0 -7.9375,0"
       id="path5595"
       inkscape:connector-curvature="0" />
    <path
       style="fill:none;stroke:#000000;stroke-width:1;stroke-linecap:butt;stroke-linejoin:miter;stroke-opacity:1;stroke-miterlimit:4;stroke-dasharray:none;marker-end:url(#marker5677)"
       d="m 134.9375,117.08333 c -7.9375,0 -7.9375,0 -7.9375,0"
       id="path5667"
       inkscape:connector-curvature="0" />
  </g>
</svg>
