<?xml version="1.0" encoding="UTF-8" standalone="no"?>
<svg
   width="233.13333mm"
   height="120.68541mm"
   viewBox="0 0 233.13333 120.68541"
   version="1.1"
   id="svg5062"
   inkscape:version="1.1 (c4e8f9ed74, 2021-05-24)"
   sodipodi:docname="mimir-context.svg"
   xmlns:inkscape="http://www.inkscape.org/namespaces/inkscape"
   xmlns:sodipodi="http://sodipodi.sourceforge.net/DTD/sodipodi-0.dtd"
   xmlns="http://www.w3.org/2000/svg"
   xmlns:svg="http://www.w3.org/2000/svg"
   xmlns:rdf="http://www.w3.org/1999/02/22-rdf-syntax-ns#"
   xmlns:cc="http://creativecommons.org/ns#"
   xmlns:dc="http://purl.org/dc/elements/1.1/">
  <defs
     id="defs5056">
    <marker
       style="overflow:visible"
       id="Arrow1Mstart"
       refX="0.0"
       refY="0.0"
       orient="auto"
       inkscape:stockid="Arrow1Mstart"
       inkscape:isstock="true">
      <path
         transform="scale(0.4) translate(10,0)"
         style="fill-rule:evenodd;fill:context-stroke;stroke:context-stroke;stroke-width:1.0pt"
         d="M 0.0,0.0 L 5.0,-5.0 L -12.5,0.0 L 5.0,5.0 L 0.0,0.0 z "
         id="path5461" />
    </marker>
    <marker
       style="overflow:visible;"
       id="Arrow1Mend"
       refX="0.0"
       refY="0.0"
       orient="auto"
       inkscape:stockid="Arrow1Mend"
       inkscape:isstock="true">
      <path
         transform="scale(0.4) rotate(180) translate(10,0)"
         style="fill-rule:evenodd;fill:context-stroke;stroke:context-stroke;stroke-width:1.0pt;"
         d="M 0.0,0.0 L 5.0,-5.0 L -12.5,0.0 L 5.0,5.0 L 0.0,0.0 z "
         id="path45103" />
    </marker>
    <marker
       style="overflow:visible;"
       id="Arrow2Mend"
       refX="0.0"
       refY="0.0"
       orient="auto"
       inkscape:stockid="Arrow2Mend"
       inkscape:isstock="true">
      <path
         transform="scale(0.6) rotate(180) translate(0,0)"
         d="M 8.7185878,4.0337352 L -2.2072895,0.016013256 L 8.7185884,-4.0017078 C 6.9730900,-1.6296469 6.9831476,1.6157441 8.7185878,4.0337352 z "
         style="fill-rule:evenodd;fill:context-stroke;stroke-width:0.62500000;stroke-linejoin:round;"
         id="path45121" />
    </marker>
    <marker
       style="overflow:visible"
       id="Arrow2Mstart"
       refX="0.0"
       refY="0.0"
       orient="auto"
       inkscape:stockid="Arrow2Mstart"
       inkscape:isstock="true">
      <path
         transform="scale(0.6) translate(0,0)"
         d="M 8.7185878,4.0337352 L -2.2072895,0.016013256 L 8.7185884,-4.0017078 C 6.9730900,-1.6296469 6.9831476,1.6157441 8.7185878,4.0337352 z "
         style="fill-rule:evenodd;fill:context-stroke;stroke-width:0.62500000;stroke-linejoin:round"
         id="path45118" />
    </marker>
    <marker
       style="overflow:visible"
       id="marker2991"
       refX="0"
       refY="0"
       orient="auto"
       inkscape:stockid="Arrow2Sstart"
       inkscape:isstock="true">
      <path
         transform="matrix(0.3,0,0,0.3,-0.69,0)"
         d="M 8.7185878,4.0337352 -2.2072895,0.01601326 8.7185884,-4.0017078 c -1.7454984,2.3720609 -1.7354408,5.6174519 -6e-7,8.035443 z"
         style="fill:#000000;fill-opacity:1;fill-rule:evenodd;stroke:#000000;stroke-width:0.625;stroke-linejoin:round;stroke-opacity:1"
         id="path2421" />
    </marker>
    <marker
       style="overflow:visible"
       id="marker2820"
       refX="0"
       refY="0"
       orient="auto"
       inkscape:stockid="Arrow1Sstart"
       inkscape:isstock="true">
      <path
         transform="matrix(0.2,0,0,0.2,1.2,0)"
         style="fill:#888a85;fill-opacity:1;fill-rule:evenodd;stroke:#888a85;stroke-width:1pt;stroke-opacity:1"
         d="M 0,0 5,-5 -12.5,0 5,5 Z"
         id="path2818" />
    </marker>
    <marker
       style="overflow:visible"
       id="marker2654"
       refX="0"
       refY="0"
       orient="auto"
       inkscape:stockid="Arrow1Sstart"
       inkscape:isstock="true">
      <path
         transform="matrix(0.2,0,0,0.2,1.2,0)"
         style="fill:#888a85;fill-opacity:1;fill-rule:evenodd;stroke:#888a85;stroke-width:1pt;stroke-opacity:1"
         d="M 0,0 5,-5 -12.5,0 5,5 Z"
         id="path2403" />
    </marker>
    <marker
       inkscape:stockid="Arrow2Send"
       orient="auto"
       refY="0"
       refX="0"
       id="marker3285"
       style="overflow:visible"
       inkscape:isstock="true">
      <path
         id="path3283"
         style="fill:#ffffff;fill-opacity:1;fill-rule:evenodd;stroke:#ffffff;stroke-width:0.625;stroke-linejoin:round;stroke-opacity:1"
         d="M 8.7185878,4.0337352 -2.2072895,0.01601326 8.7185884,-4.0017078 c -1.7454984,2.3720609 -1.7354408,5.6174519 -6e-7,8.035443 z"
         transform="matrix(-0.3,0,0,-0.3,0.69,0)"
         inkscape:connector-curvature="0" />
    </marker>
    <marker
       style="overflow:visible"
       id="Arrow2Sstart"
       refX="0"
       refY="0"
       orient="auto"
       inkscape:stockid="Arrow2Sstart"
       inkscape:isstock="true">
      <path
         transform="matrix(0.3,0,0,0.3,-0.69,0)"
         d="M 8.7185878,4.0337352 -2.2072895,0.01601326 8.7185884,-4.0017078 c -1.7454984,2.3720609 -1.7354408,5.6174519 -6e-7,8.035443 z"
         style="fill:#ffffff;fill-opacity:1;fill-rule:evenodd;stroke:#ffffff;stroke-width:0.625;stroke-linejoin:round;stroke-opacity:1"
         id="path2391" />
    </marker>
    <marker
       style="overflow:visible"
       id="marker2827"
       refX="0"
       refY="0"
       orient="auto"
       inkscape:stockid="Arrow1Sstart"
       inkscape:isstock="true">
      <path
         transform="matrix(0.2,0,0,0.2,1.2,0)"
         style="fill:#ffffff;fill-opacity:1;fill-rule:evenodd;stroke:#ffffff;stroke-width:1pt;stroke-opacity:1"
         d="M 0,0 5,-5 -12.5,0 5,5 Z"
         id="path2825" />
    </marker>
    <marker
       style="overflow:visible"
       id="Arrow1Sstart"
       refX="0"
       refY="0"
       orient="auto"
       inkscape:stockid="Arrow1Sstart"
       inkscape:isstock="true">
      <path
         transform="matrix(0.2,0,0,0.2,1.2,0)"
         style="fill:#ffffff;fill-opacity:1;fill-rule:evenodd;stroke:#ffffff;stroke-width:1pt;stroke-opacity:1"
         d="M 0,0 5,-5 -12.5,0 5,5 Z"
         id="path2373" />
    </marker>
    <marker
       style="overflow:visible"
       id="Arrow1Send"
       refX="0"
       refY="0"
       orient="auto"
       inkscape:stockid="Arrow1Send"
       inkscape:isstock="true">
      <path
         transform="matrix(-0.2,0,0,-0.2,-1.2,0)"
         style="fill:#ffffff;fill-opacity:1;fill-rule:evenodd;stroke:#ffffff;stroke-width:1pt;stroke-opacity:1"
         d="M 0,0 5,-5 -12.5,0 5,5 Z"
         id="path2376" />
    </marker>
    <marker
       style="overflow:visible"
       id="Arrow1Lend"
       refX="0"
       refY="0"
       orient="auto"
       inkscape:stockid="Arrow1Lend"
       inkscape:isstock="true">
      <path
         transform="matrix(-0.8,0,0,-0.8,-10,0)"
         style="fill:#000000;fill-opacity:1;fill-rule:evenodd;stroke:#000000;stroke-width:1pt;stroke-opacity:1"
         d="M 0,0 5,-5 -12.5,0 5,5 Z"
         id="path1030" />
    </marker>
    <linearGradient
       id="linearGradient911"
       gradientTransform="matrix(3.1139566e-8,0,0,3.1139566e-8,94.946502,1166.0314)"
       inkscape:swatch="solid">
      <stop
         style="stop-color:#ffffff;stop-opacity:1;"
         offset="0"
         id="stop909" />
    </linearGradient>
    <linearGradient
       id="linearGradient883"
       gradientTransform="matrix(0.00490061,0,0,0.00490061,-36.817201,-100.10095)"
       inkscape:swatch="solid">
      <stop
         style="stop-color:#e6e6e6;stop-opacity:1;"
         offset="0"
         id="stop881" />
    </linearGradient>
    <linearGradient
       id="linearGradient875"
       gradientTransform="matrix(0.07000434,0,0,0.07000434,81.762901,-4.1601709)"
       inkscape:swatch="solid">
      <stop
         style="stop-color:#095f8a;stop-opacity:1;"
         offset="0"
         id="stop873" />
    </linearGradient>
    <linearGradient
       id="linearGradient839"
       gradientTransform="matrix(0.07000434,0,0,0.07000434,-36.176259,67.677917)"
       inkscape:swatch="solid">
      <stop
         style="stop-color:#4f4f4f;stop-opacity:1;"
         offset="0"
         id="stop837" />
    </linearGradient>
    <linearGradient
       id="linearGradient845"
       gradientTransform="matrix(3.4306404e-4,0,0,3.4306404e-4,132.94105,-348.03206)"
       inkscape:swatch="solid">
      <stop
         style="stop-color:#969696;stop-opacity:1;"
         offset="0"
         id="stop843" />
    </linearGradient>
    <linearGradient
       id="linearGradient829"
       gradientTransform="matrix(0,0,0,0,181.82125,1524.7892)"
       inkscape:swatch="solid">
      <stop
         style="stop-color:#10a5ef;stop-opacity:1;"
         offset="0"
         id="stop827" />
    </linearGradient>
    <marker
       inkscape:stockid="Arrow2Send"
       orient="auto"
       refY="0"
       refX="0"
       id="Arrow2Send-6"
       style="overflow:visible"
       inkscape:isstock="true">
      <path
         inkscape:connector-curvature="0"
         id="path5792-8"
         style="fill:#10a5ef;fill-opacity:1;fill-rule:evenodd;stroke:#10a5ef;stroke-width:0.625;stroke-linejoin:round;stroke-opacity:1"
         d="M 8.7185878,4.0337352 -2.2072895,0.01601326 8.7185884,-4.0017078 c -1.7454984,2.3720609 -1.7354408,5.6174519 -6e-7,8.035443 z"
         transform="matrix(-0.3,0,0,-0.3,0.69,0)" />
    </marker>
    <marker
       inkscape:stockid="Arrow2Send"
       orient="auto"
       refY="0"
       refX="0"
       id="Arrow2Send-3"
       style="overflow:visible"
       inkscape:isstock="true">
      <path
         id="path5792-3"
         style="fill:#ffffff;fill-opacity:1;fill-rule:evenodd;stroke:#ffffff;stroke-width:0.625;stroke-linejoin:round;stroke-opacity:1"
         d="M 8.7185878,4.0337352 -2.2072895,0.01601326 8.7185884,-4.0017078 c -1.7454984,2.3720609 -1.7354408,5.6174519 -6e-7,8.035443 z"
         transform="matrix(-0.3,0,0,-0.3,0.69,0)"
         inkscape:connector-curvature="0" />
    </marker>
    <marker
       inkscape:stockid="Arrow2Send"
       orient="auto"
       refY="0"
       refX="0"
       id="Arrow2Send-6-7"
       style="overflow:visible"
       inkscape:isstock="true">
      <path
         inkscape:connector-curvature="0"
         id="path5792-8-5"
         style="fill:#000000;fill-opacity:1;fill-rule:evenodd;stroke:#000000;stroke-width:0.625;stroke-linejoin:round;stroke-opacity:1"
         d="M 8.7185878,4.0337352 -2.2072895,0.01601326 8.7185884,-4.0017078 c -1.7454984,2.3720609 -1.7354408,5.6174519 -6e-7,8.035443 z"
         transform="matrix(-0.3,0,0,-0.3,0.69,0)" />
    </marker>
    <marker
       inkscape:stockid="Arrow2Send"
       orient="auto"
       refY="0"
       refX="0"
       id="marker1341-7"
       style="overflow:visible"
       inkscape:isstock="true">
      <path
         id="path1339-6"
         style="fill:#ffffff;fill-opacity:1;fill-rule:evenodd;stroke:#ffffff;stroke-width:0.625;stroke-linejoin:round;stroke-opacity:1"
         d="M 8.7185878,4.0337352 -2.2072895,0.01601326 8.7185884,-4.0017078 c -1.7454984,2.3720609 -1.7354408,5.6174519 -6e-7,8.035443 z"
         transform="matrix(-0.3,0,0,-0.3,0.69,0)"
         inkscape:connector-curvature="0" />
    </marker>
    <marker
       inkscape:stockid="Arrow2Send"
       orient="auto"
       refY="0"
       refX="0"
       id="marker1607-5"
       style="overflow:visible"
       inkscape:isstock="true">
      <path
         id="path1605-0"
         style="fill:#ffffff;fill-opacity:1;fill-rule:evenodd;stroke:#ffffff;stroke-width:0.625;stroke-linejoin:round;stroke-opacity:1"
         d="M 8.7185878,4.0337352 -2.2072895,0.01601326 8.7185884,-4.0017078 c -1.7454984,2.3720609 -1.7354408,5.6174519 -6e-7,8.035443 z"
         transform="matrix(-0.3,0,0,-0.3,0.69,0)"
         inkscape:connector-curvature="0" />
    </marker>
    <marker
       inkscape:stockid="Arrow2Send"
       orient="auto"
       refY="0"
       refX="0"
       id="marker1607-5-8"
       style="overflow:visible"
       inkscape:isstock="true">
      <path
         id="path1605-0-9"
         style="fill:#ffffff;fill-opacity:1;fill-rule:evenodd;stroke:#ffffff;stroke-width:0.625;stroke-linejoin:round;stroke-opacity:1"
         d="M 8.7185878,4.0337352 -2.2072895,0.01601326 8.7185884,-4.0017078 c -1.7454984,2.3720609 -1.7354408,5.6174519 -6e-7,8.035443 z"
         transform="matrix(-0.3,0,0,-0.3,0.69,0)"
         inkscape:connector-curvature="0" />
    </marker>
    <marker
       inkscape:stockid="Arrow2Send"
       orient="auto"
       refY="0"
       refX="0"
       id="marker1607-5-8-3"
       style="overflow:visible"
       inkscape:isstock="true">
      <path
         id="path1605-0-9-8"
         style="fill:#ffffff;fill-opacity:1;fill-rule:evenodd;stroke:#ffffff;stroke-width:0.625;stroke-linejoin:round;stroke-opacity:1"
         d="M 8.7185878,4.0337352 -2.2072895,0.01601326 8.7185884,-4.0017078 c -1.7454984,2.3720609 -1.7354408,5.6174519 -6e-7,8.035443 z"
         transform="matrix(-0.3,0,0,-0.3,0.69,0)"
         inkscape:connector-curvature="0" />
    </marker>
    <marker
       inkscape:stockid="Arrow2Send"
       orient="auto"
       refY="0"
       refX="0"
       id="marker1607-4"
       style="overflow:visible"
       inkscape:isstock="true">
      <path
         id="path1605-8"
         style="fill:#ffffff;fill-opacity:1;fill-rule:evenodd;stroke:#ffffff;stroke-width:0.625;stroke-linejoin:round;stroke-opacity:1"
         d="M 8.7185878,4.0337352 -2.2072895,0.01601326 8.7185884,-4.0017078 c -1.7454984,2.3720609 -1.7354408,5.6174519 -6e-7,8.035443 z"
         transform="matrix(-0.3,0,0,-0.3,0.69,0)"
         inkscape:connector-curvature="0" />
    </marker>
    <marker
       inkscape:stockid="Arrow2Send"
       orient="auto"
       refY="0"
       refX="0"
       id="marker1607-1"
       style="overflow:visible"
       inkscape:isstock="true">
      <path
         id="path1605-7"
         style="fill:#ffffff;fill-opacity:1;fill-rule:evenodd;stroke:#ffffff;stroke-width:0.625;stroke-linejoin:round;stroke-opacity:1"
         d="M 8.7185878,4.0337352 -2.2072895,0.01601326 8.7185884,-4.0017078 c -1.7454984,2.3720609 -1.7354408,5.6174519 -6e-7,8.035443 z"
         transform="matrix(-0.3,0,0,-0.3,0.69,0)"
         inkscape:connector-curvature="0" />
    </marker>
    <marker
       inkscape:stockid="Arrow2Send"
       orient="auto"
       refY="0"
       refX="0"
       id="marker1607-1-7"
       style="overflow:visible"
       inkscape:isstock="true">
      <path
         id="path1605-7-2"
         style="fill:#ffffff;fill-opacity:1;fill-rule:evenodd;stroke:#ffffff;stroke-width:0.625;stroke-linejoin:round;stroke-opacity:1"
         d="M 8.7185878,4.0337352 -2.2072895,0.01601326 8.7185884,-4.0017078 c -1.7454984,2.3720609 -1.7354408,5.6174519 -6e-7,8.035443 z"
         transform="matrix(-0.3,0,0,-0.3,0.69,0)"
         inkscape:connector-curvature="0" />
    </marker>
    <marker
       style="overflow:visible"
       id="Arrow2Sstart-6"
       refX="0"
       refY="0"
       orient="auto"
       inkscape:stockid="Arrow2Sstart"
       inkscape:isstock="true">
      <path
         transform="matrix(0.3,0,0,0.3,-0.69,0)"
         d="M 8.7185878,4.0337352 -2.2072895,0.01601326 8.7185884,-4.0017078 c -1.7454984,2.3720609 -1.7354408,5.6174519 -6e-7,8.035443 z"
         style="fill:#ffffff;fill-opacity:1;fill-rule:evenodd;stroke:#ffffff;stroke-width:0.625;stroke-linejoin:round;stroke-opacity:1"
         id="path2391-1" />
    </marker>
    <marker
       style="overflow:visible"
       id="Arrow1Mstart-5"
       refX="0"
       refY="0"
       orient="auto"
       inkscape:stockid="Arrow1Mstart"
       inkscape:isstock="true">
      <path
         transform="matrix(0.4,0,0,0.4,4,0)"
         style="fill:context-stroke;fill-rule:evenodd;stroke:context-stroke;stroke-width:1pt"
         d="M 0,0 5,-5 -12.5,0 5,5 Z"
         id="path5461-9" />
    </marker>
    <marker
       style="overflow:visible"
       id="Arrow1Mend-7"
       refX="0"
       refY="0"
       orient="auto"
       inkscape:stockid="Arrow1Mend"
       inkscape:isstock="true">
      <path
         transform="matrix(-0.4,0,0,-0.4,-4,0)"
         style="fill:context-stroke;fill-rule:evenodd;stroke:context-stroke;stroke-width:1pt"
         d="M 0,0 5,-5 -12.5,0 5,5 Z"
         id="path45103-5" />
    </marker>
    <marker
       style="overflow:visible"
       id="Arrow1Mstart-8"
       refX="0"
       refY="0"
       orient="auto"
       inkscape:stockid="Arrow1Mstart"
       inkscape:isstock="true">
      <path
         transform="matrix(0.4,0,0,0.4,4,0)"
         style="fill:context-stroke;fill-rule:evenodd;stroke:context-stroke;stroke-width:1pt"
         d="M 0,0 5,-5 -12.5,0 5,5 Z"
         id="path5461-8" />
    </marker>
    <marker
       style="overflow:visible"
       id="Arrow1Mend-3"
       refX="0"
       refY="0"
       orient="auto"
       inkscape:stockid="Arrow1Mend"
       inkscape:isstock="true">
      <path
         transform="matrix(-0.4,0,0,-0.4,-4,0)"
         style="fill:context-stroke;fill-rule:evenodd;stroke:context-stroke;stroke-width:1pt"
         d="M 0,0 5,-5 -12.5,0 5,5 Z"
         id="path45103-1" />
    </marker>
  </defs>
  <sodipodi:namedview
     id="base"
     pagecolor="#ffffff"
     bordercolor="#666666"
     borderopacity="1.0"
     inkscape:pageopacity="0.0"
     inkscape:pageshadow="2"
     inkscape:zoom="2.8284271"
     inkscape:cx="220.79409"
     inkscape:cy="286.55502"
     inkscape:document-units="mm"
     inkscape:current-layer="layer1"
     showgrid="true"
     inkscape:window-width="3840"
     inkscape:window-height="2160"
     inkscape:window-x="0"
     inkscape:window-y="0"
     inkscape:window-maximized="1"
     fit-margin-top="0"
     fit-margin-left="0"
     fit-margin-right="0"
     fit-margin-bottom="0"
     inkscape:document-rotation="0"
     inkscape:snap-nodes="true"
     inkscape:snap-bbox="true"
     inkscape:snap-global="true"
     inkscape:pagecheckerboard="0"
     inkscape:snap-bbox-midpoints="true"
     inkscape:object-paths="true"
     inkscape:object-nodes="false"
     inkscape:snap-others="true"
     inkscape:bbox-nodes="true"
     inkscape:bbox-paths="true"
     inkscape:snap-bbox-edge-midpoints="true"
     gridtolerance="20.5">
    <inkscape:grid
       type="xygrid"
       id="grid5687"
       originx="16.025"
       originy="-124.20417" />
  </sodipodi:namedview>
  <metadata
     id="metadata5059">
    <rdf:RDF>
      <cc:Work
         rdf:about="">
        <dc:format>image/svg+xml</dc:format>
        <dc:type
           rdf:resource="http://purl.org/dc/dcmitype/StillImage" />
      </cc:Work>
    </rdf:RDF>
  </metadata>
  <g
     inkscape:label="layer1"
     inkscape:groupmode="layer"
     id="layer1"
     transform="translate(16.024999,-45.495863)"
     style="display:inline">
    <rect
       style="fill:#2e3436;fill-opacity:0.982236;stroke:#000000;stroke-width:0.3;stroke-linecap:square;stroke-linejoin:round"
       id="rect3885"
       width="232.83333"
       height="120.38541"
       x="-15.874999"
       y="45.645863" />
    <text
       xml:space="preserve"
       style="font-style:normal;font-variant:normal;font-weight:normal;font-stretch:normal;font-size:3.52778px;line-height:1.25;font-family:sans-serif;-inkscape-font-specification:'sans-serif, Normal';font-variant-ligatures:normal;font-variant-caps:normal;font-variant-numeric:normal;font-variant-east-asian:normal;text-align:center;letter-spacing:0px;word-spacing:0px;writing-mode:lr-tb;text-anchor:middle;display:inline;fill:#babdb6;stroke-width:0.264583"
       x="46.374432"
       y="136.03741"
       id="text35388-3-6-8-3-1"><tspan
         sodipodi:role="line"
         id="tspan2074"
         x="46.374432"
         y="136.03741">Reads &amp;</tspan><tspan
         sodipodi:role="line"
         id="tspan2076"
         x="46.374432"
         y="140.44713">Validates</tspan></text>
    <path
       sodipodi:type="star"
       style="display:inline;fill:#3465a4;fill-opacity:0.982236;stroke:#000000;stroke-width:0.241127;stroke-linecap:square;stroke-linejoin:bevel;stroke-miterlimit:4;stroke-dasharray:none;stroke-opacity:1"
       id="path4747-8-1-9-0-3"
       sodipodi:sides="6"
       sodipodi:cx="96.572914"
       sodipodi:cy="86.656281"
       sodipodi:r1="31.263782"
       sodipodi:r2="35.956818"
       sodipodi:arg1="0.54091071"
       sodipodi:arg2="1.0645094"
       inkscape:flatsided="true"
       inkscape:rounded="0"
       inkscape:randomized="0"
       transform="matrix(-1.2440671,-0.01519991,-0.01519991,1.2440671,236.94075,-2.2603216)"
       d="M 123.37348,102.75453 96.031705,117.91538 69.231137,101.81713 69.772347,70.558031 97.114124,55.397183 123.91469,71.495433 Z" />
    <rect
       style="fill:none;fill-opacity:0.653595;stroke:none;stroke-width:2;stroke-linecap:square;stroke-linejoin:bevel;stroke-miterlimit:4;stroke-dasharray:none"
       id="rect2375"
       width="232.83333"
       height="132.29167"
       x="-15.874999"
       y="45.645863" />
    <rect
       style="display:inline;fill:none;fill-opacity:1;stroke:none;stroke-width:0.5;stroke-miterlimit:4;stroke-dasharray:none;stroke-opacity:1"
       id="rect5727"
       width="232.83333"
       height="132.29167"
       x="-15.874994"
       y="45.645866"
       ry="5.2916927" />
    <text
       xml:space="preserve"
       style="font-style:normal;font-variant:normal;font-weight:normal;font-stretch:normal;font-size:6.35px;line-height:1.25;font-family:sans-serif;-inkscape-font-specification:'sans-serif, Normal';font-variant-ligatures:normal;font-variant-caps:normal;font-variant-numeric:normal;font-variant-east-asian:normal;letter-spacing:0px;word-spacing:0px;writing-mode:lr-tb;fill:#ffffff;stroke-width:0.264583"
       x="106.26701"
       y="89.487617"
       id="text66002"><tspan
         sodipodi:role="line"
         id="tspan67394"
         x="106.26701"
         y="89.487617">Mimir</tspan></text>
    <g
       id="g48494"
       transform="translate(15.391874,-34.165405)">
      <path
         id="path2533-2"
         style="fill:#16376d;fill-opacity:0.898039;stroke:#000000;stroke-width:0.3;stroke-linejoin:bevel;stroke-miterlimit:4;stroke-dasharray:none;stroke-opacity:1"
         d="m 2.478755,87.058407 a 7.04,7.04 0 0 0 -7.01808,7.03991 7.04,7.04 0 0 0 3.03412,5.78908 c -0.59639,-0.0579 -1.18545,-0.10739 -1.75485,-0.11968 -1.39338,-0.0302 -2.69335,0.14445 -3.83911,0.860553 -5.2252,3.26575 -5.76028,9.60054 -6.40028,12.80054 -0.64,3.2 0,6.39961 0,6.39961 h 32.00004 c 0,0 0.64,-3.19961 0,-6.39961 -0.64,-3.2 -1.17442,-9.53479 -6.39961,-12.80054 -1.58662,-0.991643 -3.52916,-0.935513 -5.59131,-0.742823 a 7.04,7.04 0 0 0 3.03146,-5.78709 7.04,7.04 0 0 0 -7.04056,-7.03991 7.04,7.04 0 0 0 -0.0218,0 z" />
      <text
         xml:space="preserve"
         style="font-style:normal;font-variant:normal;font-weight:600;font-stretch:normal;font-size:4.9389px;line-height:1.25;font-family:Muli;-inkscape-font-specification:'Muli, Semi-Bold';font-variant-ligatures:normal;font-variant-caps:normal;font-variant-numeric:normal;font-variant-east-asian:normal;text-align:center;letter-spacing:0px;word-spacing:0px;writing-mode:lr-tb;text-anchor:middle;fill:#ffffff;stroke-width:0.264583"
         x="2.406745"
         y="112.74636"
         id="text878-2-8-9"><tspan
           sodipodi:role="line"
           id="tspan2060"
           x="2.406745"
           y="112.74636">End User</tspan></text>
    </g>
    <ellipse
       style="fill:#2e3436;fill-opacity:0.982236;stroke:#000000;stroke-width:0.3;stroke-linecap:square;stroke-linejoin:round"
       id="path4667"
       cx="-81.153313"
       cy="79.958817"
       rx="11.244792"
       ry="3.3072915" />
    <ellipse
       style="display:inline;fill:#2e3436;fill-opacity:0.982236;stroke:#000000;stroke-width:0.3;stroke-linecap:square;stroke-linejoin:round"
       id="path4667-8"
       cx="-105.83334"
       cy="85.333366"
       rx="11.244792"
       ry="3.3072915" />
    <g
       id="g83826"
       transform="translate(0,2.3781494)">
      <path
         id="path4667-83"
         style="display:inline;fill:none;fill-opacity:0.982236;stroke:#000000;stroke-width:0.3;stroke-linecap:square;stroke-linejoin:round"
         d="m 211.8774,90.686235 a 11.244792,3.3072915 0 0 1 -11.24479,3.30729 11.244792,3.3072915 0 0 1 -11.2448,-3.30729 11.244792,3.3072915 0 0 1 11.2448,-3.30729 11.244792,3.3072915 0 0 1 11.24479,3.30729 z" />
      <path
         id="path4667-1"
         style="display:inline;fill:none;fill-opacity:0.982236;stroke:#000000;stroke-width:0.3;stroke-linecap:square;stroke-linejoin:round"
         d="m 211.8774,98.623737 c -1e-5,1.826573 -5.03447,3.307293 -11.24479,3.307293 -6.21033,0 -11.24479,-1.48072 -11.2448,-3.307293"
         sodipodi:nodetypes="csc" />
      <path
         style="fill:none;stroke:#000000;stroke-width:0.264583px;stroke-linecap:butt;stroke-linejoin:miter;stroke-opacity:1"
         d="m 189.38204,98.506327 c 0,-7.937502 0,-7.937502 0,-7.937502"
         id="path5107" />
      <path
         style="display:inline;fill:none;stroke:#000000;stroke-width:0.264583px;stroke-linecap:butt;stroke-linejoin:miter;stroke-opacity:1"
         d="m 211.89879,98.604407 c 0,-7.937502 0,-7.937502 0,-7.937502"
         id="path5107-8" />
      <path
         id="path4667-83-3"
         style="display:inline;fill:none;fill-opacity:0.982236;stroke:#000000;stroke-width:0.3;stroke-linecap:butt;stroke-linejoin:round"
         d="m 210.70067,100.08929 c 0.75309,0.44395 1.17673,0.94471 1.17673,1.47456 0,1.82657 -5.03447,3.30729 -11.2448,3.30729 -6.21032,0 -11.24479,-1.48072 -11.24479,-3.30729 0,-0.54187 0.44307,-1.0533 1.22846,-1.50466"
         sodipodi:nodetypes="csssc" />
      <path
         id="path4667-1-8"
         style="display:inline;fill:none;fill-opacity:0.982236;stroke:#000000;stroke-width:0.3;stroke-linecap:square;stroke-linejoin:round"
         d="m 211.8774,109.50134 c -1e-5,1.82657 -5.03447,3.30729 -11.2448,3.30729 -6.21032,0 -11.24478,-1.48072 -11.24479,-3.30729"
         sodipodi:nodetypes="csc" />
      <path
         style="fill:none;stroke:#000000;stroke-width:0.264583px;stroke-linecap:butt;stroke-linejoin:miter;stroke-opacity:1"
         d="m 189.38204,109.38393 c 0,-7.93749 0,-7.93749 0,-7.93749"
         id="path5107-6" />
      <path
         style="display:inline;fill:none;stroke:#000000;stroke-width:0.264583px;stroke-linecap:butt;stroke-linejoin:miter;stroke-opacity:1"
         d="m 211.89879,109.48201 c 0,-7.93749 0,-7.93749 0,-7.93749"
         id="path5107-8-0" />
      <path
         style="fill:#3465a4;fill-opacity:0.982236;stroke:#000000;stroke-width:0.0309271;stroke-linecap:square;stroke-linejoin:round"
         d="m 199.65745,93.818657 c -4.52276,-0.107061 -8.49036,-1.067091 -9.71725,-2.351264 -0.51516,-0.539213 -0.51402,-1.023641 0.004,-1.565513 0.78445,-0.821069 2.66361,-1.516865 5.24032,-1.940325 4.5909,-0.75448 10.36539,-0.464875 13.83108,0.693661 1.36299,0.455633 2.30829,1.04771 2.59162,1.62324 0.0824,0.167301 0.0929,0.21368 0.0929,0.408106 0,0.194744 -0.0105,0.240689 -0.0936,0.409517 -0.2827,0.574241 -1.1993,1.147908 -2.57944,1.614371 -2.30716,0.779785 -5.79844,1.192736 -9.36931,1.108207 z"
         id="path7402" />
      <path
         style="fill:#3465a4;fill-opacity:0.982236;stroke:#000000;stroke-width:0.0154636;stroke-linecap:butt;stroke-linejoin:round"
         d="m 199.82793,104.70644 c -2.62704,-0.0584 -5.0495,-0.37525 -6.9368,-0.90723 -1.92302,-0.54205 -3.12453,-1.2758 -3.31962,-2.02725 -0.0292,-0.11255 -0.0293,-0.30686 -8e-5,-0.42047 0.0303,-0.11818 0.11409,-0.2852 0.20172,-0.40232 0.14539,-0.19432 0.44266,-0.45634 0.7089,-0.62484 l 0.078,-0.0493 0.0993,0.0565 c 0.22218,0.12642 0.6869,0.33541 1.04578,0.4703 2.71252,1.01954 7.12781,1.48565 11.40274,1.20373 2.64558,-0.17446 4.96628,-0.61832 6.60762,-1.26378 0.26632,-0.10473 0.63831,-0.27421 0.82979,-0.37806 l 0.16154,-0.0876 0.0771,0.0488 c 0.2648,0.16756 0.56645,0.43337 0.70846,0.62429 0.0875,0.11764 0.17111,0.28472 0.20131,0.40232 0.0292,0.11361 0.0291,0.30792 -1.4e-4,0.42047 -0.1274,0.49073 -0.69459,0.98659 -1.61805,1.41457 -1.6832,0.78008 -4.4414,1.32383 -7.4996,1.47847 -0.82897,0.0419 -1.95993,0.059 -2.74806,0.0414 z"
         id="path7667" />
      <path
         style="fill:#16376d;fill-opacity:0.982236;stroke:#000000;stroke-width:0.0154636;stroke-linecap:butt;stroke-linejoin:round"
         d="m 199.54835,101.75952 c -3.15211,-0.0907 -5.99474,-0.5645 -7.90323,-1.31729 -0.30938,-0.12204 -0.8831,-0.40271 -1.08783,-0.532193 -0.4611,-0.29161 -0.77373,-0.59459 -0.91197,-0.88383 -0.0287,-0.06 -0.0611,-0.14593 -0.0721,-0.19094 -0.0479,-0.19606 -0.0506,-0.42715 -0.0463,-3.91205 l 0.004,-3.421085 0.0953,0.111647 c 0.32737,0.383423 0.92828,0.771242 1.7049,1.100317 2.62918,1.114049 7.28257,1.649727 11.76278,1.354074 4.25385,-0.280712 7.55158,-1.242859 8.58952,-2.506075 l 0.0706,-0.08594 v 3.498862 c 0,1.95485 -0.005,3.49886 -0.0118,3.49886 -0.006,0 -0.0161,0.0648 -0.0214,0.14405 -0.0119,0.1775 -0.0343,0.26766 -0.10141,0.40829 -0.13798,0.28908 -0.4511,0.59254 -0.91189,0.88377 -0.20507,0.129613 -0.77862,0.410533 -1.08921,0.533483 -1.74778,0.69191 -4.31964,1.15173 -7.21314,1.28962 -0.83423,0.0398 -2.01467,0.0507 -2.85716,0.0264 z"
         id="path7780" />
      <path
         style="fill:#16376d;fill-opacity:0.982236;stroke:#000000;stroke-width:0.015;stroke-linecap:butt;stroke-linejoin:round;stroke-miterlimit:4;stroke-dasharray:none"
         d="m 199.82111,112.64385 c -3.66876,-0.0821 -6.92372,-0.6737 -8.79244,-1.59794 -0.90302,-0.44662 -1.40296,-0.93588 -1.47995,-1.44834 -0.01,-0.0667 -0.0163,-1.21916 -0.0198,-3.66141 l -0.005,-3.56402 0.0664,0.0795 c 1.09737,1.31391 4.6471,2.29765 9.11943,2.52728 1.16029,0.0596 2.68063,0.0595 3.85274,-2.7e-4 3.99441,-0.20363 7.33065,-1.02742 8.72691,-2.15485 0.12854,-0.10379 0.35595,-0.32801 0.42819,-0.42218 l 0.0366,-0.0477 1.5e-4,3.49473 c 1.4e-4,1.92211 -0.005,3.49474 -0.0115,3.49474 -0.006,0 -0.0159,0.066 -0.021,0.14661 -0.0104,0.16245 -0.0336,0.26739 -0.0842,0.38182 -0.12803,0.2895 -0.46923,0.62946 -0.90153,0.89826 -1.44955,0.90132 -4.21543,1.56255 -7.49175,1.79102 -1.08005,0.0753 -2.36685,0.10644 -3.42314,0.0828 z"
         id="path7856" />
      <text
         xml:space="preserve"
         style="font-style:normal;font-variant:normal;font-weight:600;font-stretch:normal;font-size:4.93889px;line-height:1.25;font-family:Muli;-inkscape-font-specification:'Muli, Semi-Bold';font-variant-ligatures:normal;font-variant-caps:normal;font-variant-numeric:normal;font-variant-east-asian:normal;text-align:center;letter-spacing:0px;word-spacing:0px;writing-mode:lr-tb;text-anchor:middle;display:inline;fill:#ffffff;stroke-width:0.264583"
         x="200.56036"
         y="119.06189"
         id="text878-2-8-9-4"><tspan
           sodipodi:role="line"
           id="tspan68015"
           x="200.56036"
           y="119.06189">Elasticsearch</tspan></text>
    </g>
    <g
       id="g84409"
       transform="translate(12.941328,-6.7386067)">
      <rect
         style="fill:#3465a4;fill-opacity:0.982236;stroke:#000000;stroke-width:0.3;stroke-linecap:butt;stroke-linejoin:round;stroke-miterlimit:4;stroke-dasharray:none;stroke-opacity:1"
         id="rect22496"
         width="25.3848"
         height="10.433323"
         x="27.931252"
         y="100.03545" />
      <text
         xml:space="preserve"
         style="font-style:normal;font-variant:normal;font-weight:normal;font-stretch:normal;font-size:4.93889px;line-height:1.25;font-family:sans-serif;-inkscape-font-specification:'sans-serif, Normal';font-variant-ligatures:normal;font-variant-caps:normal;font-variant-numeric:normal;font-variant-east-asian:normal;text-align:center;letter-spacing:0px;word-spacing:0px;writing-mode:lr-tb;text-anchor:middle;display:inline;fill:#ffffff;stroke-width:0.264583"
         x="40.612801"
         y="106.61465"
         id="text42500-7"><tspan
           sodipodi:role="line"
           id="tspan67981"
           x="40.612801"
           y="106.61465">Bragi</tspan></text>
    </g>
    <text
       xml:space="preserve"
       style="font-style:normal;font-variant:normal;font-weight:normal;font-stretch:normal;font-size:3.52778px;line-height:1.25;font-family:sans-serif;-inkscape-font-specification:'sans-serif, Normal';font-variant-ligatures:normal;font-variant-caps:normal;font-variant-numeric:normal;font-variant-east-asian:normal;text-align:center;letter-spacing:0px;word-spacing:0px;writing-mode:lr-tb;text-anchor:middle;display:inline;fill:#babdb6;stroke-width:0.264583"
       x="169.30219"
       y="101.63331"
       id="text35388-3-6-8-3"><tspan
         sodipodi:role="line"
         id="tspan83900"
         x="169.30219"
         y="101.63331">Saves  to &amp;</tspan><tspan
         sodipodi:role="line"
         id="tspan83902"
         x="169.30219"
         y="106.04303">Queries from</tspan></text>
    <path
       style="fill:none;stroke:#888a85;stroke-width:0.4;stroke-linecap:butt;stroke-linejoin:miter;stroke-miterlimit:4;stroke-dasharray:none;stroke-opacity:1;marker-end:url(#Arrow2Mend)"
       d="m 149.48958,102.53128 h 6.97618 m 25.78603,0 h 6.92529"
       id="path83697"
       sodipodi:nodetypes="cccc" />
    <g
       id="g85805"
       transform="translate(3.8263772,-18.558044)">
      <rect
         style="fill:#3465a4;fill-opacity:0.982236;stroke:#000000;stroke-width:0.3;stroke-linecap:butt;stroke-linejoin:round;stroke-miterlimit:4;stroke-dasharray:none;stroke-opacity:1"
         id="rect22496-9-0"
         width="52.766666"
         height="10.433319"
         x="4.1646132"
         y="127.75507" />
      <rect
         style="display:inline;fill:#3465a4;fill-opacity:0.982236;stroke:#000000;stroke-width:0.3;stroke-linecap:butt;stroke-linejoin:round;stroke-miterlimit:4;stroke-dasharray:none;stroke-opacity:1"
         id="rect22496-9-0-4"
         width="52.766666"
         height="10.433319"
         x="6.8422279"
         y="130.40091" />
      <rect
         style="display:inline;fill:#3465a4;fill-opacity:0.982236;stroke:#000000;stroke-width:0.3;stroke-linecap:butt;stroke-linejoin:round;stroke-miterlimit:4;stroke-dasharray:none;stroke-opacity:1"
         id="rect22496-9-0-4-6"
         width="52.766666"
         height="10.433319"
         x="9.4389687"
         y="133.05035" />
      <g
         id="g85453"
         transform="translate(10.672217,10.56938)">
        <rect
           style="fill:#3465a4;fill-opacity:0.982236;stroke:#000000;stroke-width:0.3;stroke-linecap:butt;stroke-linejoin:round;stroke-miterlimit:4;stroke-dasharray:none;stroke-opacity:1"
           id="rect22496-9"
           width="52.766666"
           height="10.433319"
           x="1.4729176"
           y="125.17087" />
        <text
           xml:space="preserve"
           style="font-style:normal;font-variant:normal;font-weight:normal;font-stretch:normal;font-size:4.93889px;line-height:1.25;font-family:sans-serif;-inkscape-font-specification:'sans-serif, Normal';font-variant-ligatures:normal;font-variant-caps:normal;font-variant-numeric:normal;font-variant-east-asian:normal;text-align:center;letter-spacing:0px;word-spacing:0px;writing-mode:lr-tb;text-anchor:middle;display:inline;fill:#ffffff;stroke-width:0.264583"
           x="27.719997"
           y="131.75006"
           id="text42500-7-2"><tspan
             sodipodi:role="line"
             id="tspan85448"
             x="27.719997"
             y="131.75006">cosmogony2mimir</tspan></text>
      </g>
    </g>
    <path
       id="rect85989-7"
       style="display:inline;fill:#16376d;fill-opacity:0.982236;stroke:#000000;stroke-width:0.4;stroke-linejoin:round"
       d="M 7.1527437,149.6091 H -9.9671409 v -16.51476 l 5.3528465,0.0511 c 2.673399,-5.9e-4 3.96169802,-5.29257 6.6171311,-5.27675 l 5.318473,-0.002 z"
       sodipodi:nodetypes="ccccccc" />
    <g
       id="g1469"
       transform="translate(2.6458332,-3.4808803)">
      <path
         id="rect85989"
         style="fill:#16376d;fill-opacity:0.982236;stroke:#000000;stroke-width:0.4;stroke-linejoin:round"
         d="M 11.121494,158.38165 H -5.9983909 v -16.51476 l 5.35284646,0.0511 c 2.67339904,-5.9e-4 3.96169804,-5.29257 6.61713114,-5.27675 l 5.3184733,-0.002 z"
         sodipodi:nodetypes="ccccccc" />
      <text
         xml:space="preserve"
         style="font-size:5.64444px;line-height:1.25;font-family:sans-serif;-inkscape-font-specification:sans-serif;letter-spacing:0px;word-spacing:0px;writing-mode:lr-tb;fill:#ffffff;stroke-width:0.264583"
         x="-3.6848681"
         y="151.17595"
         id="text92624"><tspan
           sodipodi:role="line"
           id="tspan92622"
           style="fill:#ffffff;stroke-width:0.264583"
           x="-3.6848681"
           y="151.17595">OSM</tspan></text>
    </g>
    <g
       id="g1442"
       transform="translate(-15.88581,2.933778)">
      <path
         id="rect85989-2"
         style="fill:#16376d;fill-opacity:0.982236;stroke:#000000;stroke-width:0.4;stroke-linejoin:round"
         d="M 42.279369,159.41662 H 21.118646 v -16.51476 l 5.352846,0.0511 c 2.673399,-5.9e-4 3.961698,-5.29257 6.617131,-5.27675 l 9.314353,-0.002 z"
         sodipodi:nodetypes="ccccccc" />
      <text
         xml:space="preserve"
         style="font-style:normal;font-variant:normal;font-weight:normal;font-stretch:normal;font-size:5.64444px;line-height:1.25;font-family:sans-serif;-inkscape-font-specification:'sans-serif, Normal';font-variant-ligatures:normal;font-variant-caps:normal;font-variant-numeric:normal;font-variant-east-asian:normal;letter-spacing:0px;word-spacing:0px;writing-mode:lr-tb;fill:#ffffff;stroke-width:0.264583"
         x="23.442978"
         y="152.21092"
         id="text92624-2"><tspan
           sodipodi:role="line"
           id="tspan97873"
           x="23.442978"
           y="152.21092">BANO</tspan></text>
    </g>
    <path
       style="fill:none;stroke:#888a85;stroke-width:0.4;stroke-linecap:butt;stroke-linejoin:miter;stroke-miterlimit:4;stroke-dasharray:none;stroke-opacity:1;marker-end:url(#Arrow1Mend)"
       d="m 46.193287,127.49887 0.005,4.29702 m 0.01215,10.45231 0.0044,3.81786 c 0.08721,1.44438 -1.235709,2.7673 -2.669515,2.66119 -5.270585,-0.008 -10.472444,0.10611 -16.202903,-0.0484"
       id="path1504"
       sodipodi:nodetypes="cccccc" />
    <path
       style="fill:none;stroke:#888a85;stroke-width:0.4;stroke-linecap:butt;stroke-linejoin:miter;stroke-miterlimit:4;stroke-dasharray:none;stroke-opacity:1;marker-end:url(#Arrow1Mend);marker-start:url(#Arrow1Mstart)"
       d="m 18.520834,86.656277 v 9.260416 c 0,1.322917 1.322917,2.645833 2.599286,2.663556 l 18.567381,-0.01772"
       id="path4937"
       sodipodi:nodetypes="cccc" />
    <path
       style="fill:none;stroke:#888a85;stroke-width:0.4;stroke-linecap:butt;stroke-linejoin:miter;stroke-opacity:1;stroke-miterlimit:4;stroke-dasharray:none;marker-start:url(#Arrow1Mstart);marker-end:url(#Arrow1Mend)"
       d="M 67.46875,98.562527 H 80.697917"
       id="path5894" />
    <path
       style="display:inline;fill:none;stroke:#888a85;stroke-width:0.4;stroke-linecap:butt;stroke-linejoin:miter;stroke-miterlimit:4;stroke-dasharray:none;stroke-opacity:1;marker-start:url(#Arrow1Mstart-8);marker-end:url(#Arrow1Mend-3)"
       d="M 67.468751,115.76044 H 80.697918"
       id="path5894-8" />
  </g>
</svg>
