<?xml version="1.0" encoding="UTF-8" standalone="no"?>
<svg
   width="233.13333mm"
   height="120.68541mm"
   viewBox="0 0 233.13333 120.68541"
   version="1.1"
   id="svg5062"
   inkscape:version="1.1 (c4e8f9ed74, 2021-05-24)"
   sodipodi:docname="hexagon-rest-1.1.svg"
   xmlns:inkscape="http://www.inkscape.org/namespaces/inkscape"
   xmlns:sodipodi="http://sodipodi.sourceforge.net/DTD/sodipodi-0.dtd"
   xmlns="http://www.w3.org/2000/svg"
   xmlns:svg="http://www.w3.org/2000/svg"
   xmlns:rdf="http://www.w3.org/1999/02/22-rdf-syntax-ns#"
   xmlns:cc="http://creativecommons.org/ns#"
   xmlns:dc="http://purl.org/dc/elements/1.1/">
  <defs
     id="defs5056">
    <marker
       style="overflow:visible"
       id="marker2991"
       refX="0"
       refY="0"
       orient="auto"
       inkscape:stockid="Arrow2Sstart"
       inkscape:isstock="true">
      <path
         transform="matrix(0.3,0,0,0.3,-0.69,0)"
         d="M 8.7185878,4.0337352 -2.2072895,0.01601326 8.7185884,-4.0017078 c -1.7454984,2.3720609 -1.7354408,5.6174519 -6e-7,8.035443 z"
         style="fill:#000000;fill-opacity:1;fill-rule:evenodd;stroke:#000000;stroke-width:0.625;stroke-linejoin:round;stroke-opacity:1"
         id="path2421" />
    </marker>
    <marker
       style="overflow:visible"
       id="marker2820"
       refX="0"
       refY="0"
       orient="auto"
       inkscape:stockid="Arrow1Sstart"
       inkscape:isstock="true">
      <path
         transform="matrix(0.2,0,0,0.2,1.2,0)"
         style="fill:#888a85;fill-opacity:1;fill-rule:evenodd;stroke:#888a85;stroke-width:1pt;stroke-opacity:1"
         d="M 0,0 5,-5 -12.5,0 5,5 Z"
         id="path2818" />
    </marker>
    <marker
       style="overflow:visible"
       id="marker2654"
       refX="0"
       refY="0"
       orient="auto"
       inkscape:stockid="Arrow1Sstart"
       inkscape:isstock="true">
      <path
         transform="matrix(0.2,0,0,0.2,1.2,0)"
         style="fill:#888a85;fill-opacity:1;fill-rule:evenodd;stroke:#888a85;stroke-width:1pt;stroke-opacity:1"
         d="M 0,0 5,-5 -12.5,0 5,5 Z"
         id="path2403" />
    </marker>
    <marker
       inkscape:stockid="Arrow2Send"
       orient="auto"
       refY="0"
       refX="0"
       id="marker3285"
       style="overflow:visible"
       inkscape:isstock="true">
      <path
         id="path3283"
         style="fill:#ffffff;fill-opacity:1;fill-rule:evenodd;stroke:#ffffff;stroke-width:0.625;stroke-linejoin:round;stroke-opacity:1"
         d="M 8.7185878,4.0337352 -2.2072895,0.01601326 8.7185884,-4.0017078 c -1.7454984,2.3720609 -1.7354408,5.6174519 -6e-7,8.035443 z"
         transform="matrix(-0.3,0,0,-0.3,0.69,0)"
         inkscape:connector-curvature="0" />
    </marker>
    <marker
       style="overflow:visible"
       id="Arrow2Sstart"
       refX="0"
       refY="0"
       orient="auto"
       inkscape:stockid="Arrow2Sstart"
       inkscape:isstock="true">
      <path
         transform="matrix(0.3,0,0,0.3,-0.69,0)"
         d="M 8.7185878,4.0337352 -2.2072895,0.01601326 8.7185884,-4.0017078 c -1.7454984,2.3720609 -1.7354408,5.6174519 -6e-7,8.035443 z"
         style="fill:#ffffff;fill-opacity:1;fill-rule:evenodd;stroke:#ffffff;stroke-width:0.625;stroke-linejoin:round;stroke-opacity:1"
         id="path2391" />
    </marker>
    <marker
       style="overflow:visible"
       id="marker2827"
       refX="0"
       refY="0"
       orient="auto"
       inkscape:stockid="Arrow1Sstart"
       inkscape:isstock="true">
      <path
         transform="matrix(0.2,0,0,0.2,1.2,0)"
         style="fill:#ffffff;fill-opacity:1;fill-rule:evenodd;stroke:#ffffff;stroke-width:1pt;stroke-opacity:1"
         d="M 0,0 5,-5 -12.5,0 5,5 Z"
         id="path2825" />
    </marker>
    <marker
       style="overflow:visible"
       id="Arrow1Sstart"
       refX="0"
       refY="0"
       orient="auto"
       inkscape:stockid="Arrow1Sstart"
       inkscape:isstock="true">
      <path
         transform="matrix(0.2,0,0,0.2,1.2,0)"
         style="fill:#ffffff;fill-opacity:1;fill-rule:evenodd;stroke:#ffffff;stroke-width:1pt;stroke-opacity:1"
         d="M 0,0 5,-5 -12.5,0 5,5 Z"
         id="path2373" />
    </marker>
    <marker
       style="overflow:visible"
       id="Arrow1Send"
       refX="0"
       refY="0"
       orient="auto"
       inkscape:stockid="Arrow1Send"
       inkscape:isstock="true">
      <path
         transform="matrix(-0.2,0,0,-0.2,-1.2,0)"
         style="fill:#ffffff;fill-opacity:1;fill-rule:evenodd;stroke:#ffffff;stroke-width:1pt;stroke-opacity:1"
         d="M 0,0 5,-5 -12.5,0 5,5 Z"
         id="path2376" />
    </marker>
    <marker
       style="overflow:visible"
       id="Arrow1Lend"
       refX="0"
       refY="0"
       orient="auto"
       inkscape:stockid="Arrow1Lend"
       inkscape:isstock="true">
      <path
         transform="matrix(-0.8,0,0,-0.8,-10,0)"
         style="fill:#000000;fill-opacity:1;fill-rule:evenodd;stroke:#000000;stroke-width:1pt;stroke-opacity:1"
         d="M 0,0 5,-5 -12.5,0 5,5 Z"
         id="path1030" />
    </marker>
    <linearGradient
       id="linearGradient911"
       gradientTransform="matrix(3.1139566e-8,0,0,3.1139566e-8,94.946502,1166.0314)"
       inkscape:swatch="solid">
      <stop
         style="stop-color:#ffffff;stop-opacity:1;"
         offset="0"
         id="stop909" />
    </linearGradient>
    <linearGradient
       id="linearGradient883"
       gradientTransform="matrix(0.00490061,0,0,0.00490061,-36.817201,-100.10095)"
       inkscape:swatch="solid">
      <stop
         style="stop-color:#e6e6e6;stop-opacity:1;"
         offset="0"
         id="stop881" />
    </linearGradient>
    <linearGradient
       id="linearGradient875"
       gradientTransform="matrix(0.07000434,0,0,0.07000434,81.762901,-4.1601709)"
       inkscape:swatch="solid">
      <stop
         style="stop-color:#095f8a;stop-opacity:1;"
         offset="0"
         id="stop873" />
    </linearGradient>
    <linearGradient
       id="linearGradient839"
       gradientTransform="matrix(0.07000434,0,0,0.07000434,-36.176259,67.677917)"
       inkscape:swatch="solid">
      <stop
         style="stop-color:#4f4f4f;stop-opacity:1;"
         offset="0"
         id="stop837" />
    </linearGradient>
    <linearGradient
       id="linearGradient845"
       gradientTransform="matrix(3.4306404e-4,0,0,3.4306404e-4,132.94105,-348.03206)"
       inkscape:swatch="solid">
      <stop
         style="stop-color:#969696;stop-opacity:1;"
         offset="0"
         id="stop843" />
    </linearGradient>
    <linearGradient
       id="linearGradient829"
       gradientTransform="matrix(0,0,0,0,181.82125,1524.7892)"
       inkscape:swatch="solid">
      <stop
         style="stop-color:#10a5ef;stop-opacity:1;"
         offset="0"
         id="stop827" />
    </linearGradient>
    <marker
       inkscape:stockid="Arrow2Send"
       orient="auto"
       refY="0"
       refX="0"
       id="Arrow2Send-6"
       style="overflow:visible"
       inkscape:isstock="true">
      <path
         inkscape:connector-curvature="0"
         id="path5792-8"
         style="fill:#10a5ef;fill-opacity:1;fill-rule:evenodd;stroke:#10a5ef;stroke-width:0.625;stroke-linejoin:round;stroke-opacity:1"
         d="M 8.7185878,4.0337352 -2.2072895,0.01601326 8.7185884,-4.0017078 c -1.7454984,2.3720609 -1.7354408,5.6174519 -6e-7,8.035443 z"
         transform="matrix(-0.3,0,0,-0.3,0.69,0)" />
    </marker>
    <marker
       inkscape:stockid="Arrow2Send"
       orient="auto"
       refY="0"
       refX="0"
       id="Arrow2Send-3"
       style="overflow:visible"
       inkscape:isstock="true">
      <path
         id="path5792-3"
         style="fill:#ffffff;fill-opacity:1;fill-rule:evenodd;stroke:#ffffff;stroke-width:0.625;stroke-linejoin:round;stroke-opacity:1"
         d="M 8.7185878,4.0337352 -2.2072895,0.01601326 8.7185884,-4.0017078 c -1.7454984,2.3720609 -1.7354408,5.6174519 -6e-7,8.035443 z"
         transform="matrix(-0.3,0,0,-0.3,0.69,0)"
         inkscape:connector-curvature="0" />
    </marker>
    <marker
       inkscape:stockid="Arrow2Send"
       orient="auto"
       refY="0"
       refX="0"
       id="Arrow2Send-6-7"
       style="overflow:visible"
       inkscape:isstock="true">
      <path
         inkscape:connector-curvature="0"
         id="path5792-8-5"
         style="fill:#000000;fill-opacity:1;fill-rule:evenodd;stroke:#000000;stroke-width:0.625;stroke-linejoin:round;stroke-opacity:1"
         d="M 8.7185878,4.0337352 -2.2072895,0.01601326 8.7185884,-4.0017078 c -1.7454984,2.3720609 -1.7354408,5.6174519 -6e-7,8.035443 z"
         transform="matrix(-0.3,0,0,-0.3,0.69,0)" />
    </marker>
    <marker
       inkscape:stockid="Arrow2Send"
       orient="auto"
       refY="0"
       refX="0"
       id="marker1341-7"
       style="overflow:visible"
       inkscape:isstock="true">
      <path
         id="path1339-6"
         style="fill:#ffffff;fill-opacity:1;fill-rule:evenodd;stroke:#ffffff;stroke-width:0.625;stroke-linejoin:round;stroke-opacity:1"
         d="M 8.7185878,4.0337352 -2.2072895,0.01601326 8.7185884,-4.0017078 c -1.7454984,2.3720609 -1.7354408,5.6174519 -6e-7,8.035443 z"
         transform="matrix(-0.3,0,0,-0.3,0.69,0)"
         inkscape:connector-curvature="0" />
    </marker>
    <marker
       inkscape:stockid="Arrow2Send"
       orient="auto"
       refY="0"
       refX="0"
       id="marker1607-5"
       style="overflow:visible"
       inkscape:isstock="true">
      <path
         id="path1605-0"
         style="fill:#ffffff;fill-opacity:1;fill-rule:evenodd;stroke:#ffffff;stroke-width:0.625;stroke-linejoin:round;stroke-opacity:1"
         d="M 8.7185878,4.0337352 -2.2072895,0.01601326 8.7185884,-4.0017078 c -1.7454984,2.3720609 -1.7354408,5.6174519 -6e-7,8.035443 z"
         transform="matrix(-0.3,0,0,-0.3,0.69,0)"
         inkscape:connector-curvature="0" />
    </marker>
    <marker
       inkscape:stockid="Arrow2Send"
       orient="auto"
       refY="0"
       refX="0"
       id="marker1607-5-8"
       style="overflow:visible"
       inkscape:isstock="true">
      <path
         id="path1605-0-9"
         style="fill:#ffffff;fill-opacity:1;fill-rule:evenodd;stroke:#ffffff;stroke-width:0.625;stroke-linejoin:round;stroke-opacity:1"
         d="M 8.7185878,4.0337352 -2.2072895,0.01601326 8.7185884,-4.0017078 c -1.7454984,2.3720609 -1.7354408,5.6174519 -6e-7,8.035443 z"
         transform="matrix(-0.3,0,0,-0.3,0.69,0)"
         inkscape:connector-curvature="0" />
    </marker>
    <marker
       inkscape:stockid="Arrow2Send"
       orient="auto"
       refY="0"
       refX="0"
       id="marker1607-5-8-3"
       style="overflow:visible"
       inkscape:isstock="true">
      <path
         id="path1605-0-9-8"
         style="fill:#ffffff;fill-opacity:1;fill-rule:evenodd;stroke:#ffffff;stroke-width:0.625;stroke-linejoin:round;stroke-opacity:1"
         d="M 8.7185878,4.0337352 -2.2072895,0.01601326 8.7185884,-4.0017078 c -1.7454984,2.3720609 -1.7354408,5.6174519 -6e-7,8.035443 z"
         transform="matrix(-0.3,0,0,-0.3,0.69,0)"
         inkscape:connector-curvature="0" />
    </marker>
    <marker
       inkscape:stockid="Arrow2Send"
       orient="auto"
       refY="0"
       refX="0"
       id="marker1607-4"
       style="overflow:visible"
       inkscape:isstock="true">
      <path
         id="path1605-8"
         style="fill:#ffffff;fill-opacity:1;fill-rule:evenodd;stroke:#ffffff;stroke-width:0.625;stroke-linejoin:round;stroke-opacity:1"
         d="M 8.7185878,4.0337352 -2.2072895,0.01601326 8.7185884,-4.0017078 c -1.7454984,2.3720609 -1.7354408,5.6174519 -6e-7,8.035443 z"
         transform="matrix(-0.3,0,0,-0.3,0.69,0)"
         inkscape:connector-curvature="0" />
    </marker>
    <marker
       inkscape:stockid="Arrow2Send"
       orient="auto"
       refY="0"
       refX="0"
       id="marker1607-1"
       style="overflow:visible"
       inkscape:isstock="true">
      <path
         id="path1605-7"
         style="fill:#ffffff;fill-opacity:1;fill-rule:evenodd;stroke:#ffffff;stroke-width:0.625;stroke-linejoin:round;stroke-opacity:1"
         d="M 8.7185878,4.0337352 -2.2072895,0.01601326 8.7185884,-4.0017078 c -1.7454984,2.3720609 -1.7354408,5.6174519 -6e-7,8.035443 z"
         transform="matrix(-0.3,0,0,-0.3,0.69,0)"
         inkscape:connector-curvature="0" />
    </marker>
    <marker
       inkscape:stockid="Arrow2Send"
       orient="auto"
       refY="0"
       refX="0"
       id="marker1607-1-7"
       style="overflow:visible"
       inkscape:isstock="true">
      <path
         id="path1605-7-2"
         style="fill:#ffffff;fill-opacity:1;fill-rule:evenodd;stroke:#ffffff;stroke-width:0.625;stroke-linejoin:round;stroke-opacity:1"
         d="M 8.7185878,4.0337352 -2.2072895,0.01601326 8.7185884,-4.0017078 c -1.7454984,2.3720609 -1.7354408,5.6174519 -6e-7,8.035443 z"
         transform="matrix(-0.3,0,0,-0.3,0.69,0)"
         inkscape:connector-curvature="0" />
    </marker>
    <marker
       style="overflow:visible"
       id="Arrow2Sstart-6"
       refX="0"
       refY="0"
       orient="auto"
       inkscape:stockid="Arrow2Sstart"
       inkscape:isstock="true">
      <path
         transform="matrix(0.3,0,0,0.3,-0.69,0)"
         d="M 8.7185878,4.0337352 -2.2072895,0.01601326 8.7185884,-4.0017078 c -1.7454984,2.3720609 -1.7354408,5.6174519 -6e-7,8.035443 z"
         style="fill:#ffffff;fill-opacity:1;fill-rule:evenodd;stroke:#ffffff;stroke-width:0.625;stroke-linejoin:round;stroke-opacity:1"
         id="path2391-1" />
    </marker>
  </defs>
  <sodipodi:namedview
     id="base"
     pagecolor="#ffffff"
     bordercolor="#666666"
     borderopacity="1.0"
     inkscape:pageopacity="0.0"
     inkscape:pageshadow="2"
     inkscape:zoom="2.4250549"
     inkscape:cx="461.63903"
     inkscape:cy="230.30406"
     inkscape:document-units="mm"
     inkscape:current-layer="layer1"
     showgrid="true"
     inkscape:window-width="3840"
     inkscape:window-height="2160"
     inkscape:window-x="0"
     inkscape:window-y="0"
     inkscape:window-maximized="1"
     fit-margin-top="0"
     fit-margin-left="0"
     fit-margin-right="0"
     fit-margin-bottom="0"
     inkscape:document-rotation="0"
     inkscape:snap-nodes="true"
     inkscape:snap-bbox="false"
     inkscape:snap-global="true"
     inkscape:pagecheckerboard="0"
     inkscape:snap-bbox-midpoints="false"
     inkscape:object-paths="true"
     inkscape:object-nodes="false"
     inkscape:snap-others="false">
    <inkscape:grid
       type="xygrid"
       id="grid5687"
       originx="16.025"
       originy="-124.20417" />
  </sodipodi:namedview>
  <metadata
     id="metadata5059">
    <rdf:RDF>
      <cc:Work
         rdf:about="">
        <dc:format>image/svg+xml</dc:format>
        <dc:type
           rdf:resource="http://purl.org/dc/dcmitype/StillImage" />
      </cc:Work>
    </rdf:RDF>
  </metadata>
  <g
     inkscape:label="layer1"
     inkscape:groupmode="layer"
     id="layer1"
     transform="translate(16.024999,-45.495863)"
     style="display:inline">
    <rect
       style="fill:#2e3436;fill-opacity:0.982236;stroke:#000000;stroke-width:0.3;stroke-linecap:square;stroke-linejoin:round"
       id="rect3885"
       width="232.83333"
       height="120.38541"
       x="-15.874999"
       y="45.645863" />
    <path
       sodipodi:type="star"
       style="display:inline;fill:#3465a4;fill-opacity:0.982236;stroke:none;stroke-width:2;stroke-linecap:square;stroke-linejoin:bevel;stroke-miterlimit:4;stroke-dasharray:none"
       id="path4747-8-1-9-0-3"
       sodipodi:sides="6"
       sodipodi:cx="96.572914"
       sodipodi:cy="86.656281"
       sodipodi:r1="41.519356"
       sodipodi:r2="35.956818"
       sodipodi:arg1="0.53495507"
       sodipodi:arg2="1.0585538"
       inkscape:flatsided="true"
       inkscape:rounded="0"
       inkscape:randomized="0"
       transform="matrix(-1.2440671,-0.01519991,-0.01519991,1.2440671,226.48425,-2.2603216)"
       d="M 132.29166,107.82295 96.101418,128.17296 60.382668,107.00629 60.854164,65.489614 97.04441,45.139602 132.76316,66.306269 Z" />
    <rect
       style="fill:none;fill-opacity:0.653595;stroke:none;stroke-width:2;stroke-linecap:square;stroke-linejoin:bevel;stroke-miterlimit:4;stroke-dasharray:none"
       id="rect2375"
       width="232.83333"
       height="132.29167"
       x="-15.874999"
       y="45.645863" />
    <rect
       style="display:inline;fill:none;fill-opacity:1;stroke:none;stroke-width:0.5;stroke-miterlimit:4;stroke-dasharray:none;stroke-opacity:1"
       id="rect5727"
       width="232.83333"
       height="132.29167"
       x="-15.874994"
       y="45.645866"
       ry="5.2916927" />
    <text
       xml:space="preserve"
       style="font-style:normal;font-variant:normal;font-weight:normal;font-stretch:normal;font-size:4.93889px;line-height:1.25;font-family:sans-serif;-inkscape-font-specification:'sans-serif, Normal';font-variant-ligatures:normal;font-variant-caps:normal;font-variant-numeric:normal;font-variant-east-asian:normal;text-align:center;letter-spacing:0px;word-spacing:0px;writing-mode:lr-tb;text-anchor:middle;fill:#ffffff;stroke-width:0.264583"
       x="137.53752"
       y="102.83244"
       id="text16993"><tspan
         sodipodi:role="line"
         id="tspan22766"
         x="137.53752"
         y="102.83244">Backend</tspan><tspan
         sodipodi:role="line"
         id="tspan22768"
         x="137.53752"
         y="109.00606">Port</tspan></text>
    <text
       xml:space="preserve"
       style="font-style:normal;font-variant:normal;font-weight:normal;font-stretch:normal;font-size:4.93889px;line-height:1.25;font-family:sans-serif;-inkscape-font-specification:'sans-serif, Normal';font-variant-ligatures:normal;font-variant-caps:normal;font-variant-numeric:normal;font-variant-east-asian:normal;text-align:center;letter-spacing:0px;word-spacing:0px;writing-mode:lr-tb;text-anchor:middle;fill:#ffffff;stroke-width:0.264583"
       x="71.684944"
       y="102.60862"
       id="text42500"><tspan
         sodipodi:role="line"
         id="tspan22744">Frontend</tspan><tspan
         sodipodi:role="line"
         id="tspan22746">Port</tspan></text>
    <text
       xml:space="preserve"
       style="font-size:6.35px;line-height:1.25;font-family:sans-serif;-inkscape-font-specification:sans-serif;letter-spacing:0px;word-spacing:0px;writing-mode:lr-tb;fill:#ffffff;stroke-width:0.264583"
       x="93.075661"
       y="72.078873"
       id="text66002"><tspan
         sodipodi:role="line"
         id="tspan66000"
         style="font-size:6.35px;fill:#ffffff;stroke-width:0.264583"
         x="93.075661"
         y="72.078873">Domain</tspan></text>
    <g
       id="g22472"
       transform="translate(-15.979909)">
      <path
         id="path2533-2"
         style="fill:#16376d;fill-opacity:0.898039;stroke:none;stroke-width:1.28;stroke-linejoin:bevel;stroke-miterlimit:4;stroke-dasharray:none;stroke-opacity:1"
         d="m 18.458664,87.058407 a 7.04,7.04 0 0 0 -7.01808,7.03991 7.04,7.04 0 0 0 3.03412,5.78908 c -0.59639,-0.0579 -1.18545,-0.10739 -1.75485,-0.11968 -1.39338,-0.0302 -2.69335,0.14445 -3.83911,0.860553 -5.2252,3.26575 -5.76028,9.60054 -6.40028,12.80054 -0.64,3.2 0,6.39961 0,6.39961 h 32.00004 c 0,0 0.64,-3.19961 0,-6.39961 -0.64,-3.2 -1.17442,-9.53479 -6.39961,-12.80054 -1.58662,-0.991643 -3.52916,-0.935513 -5.59131,-0.742823 a 7.04,7.04 0 0 0 3.03146,-5.78709 7.04,7.04 0 0 0 -7.04056,-7.03991 7.04,7.04 0 0 0 -0.0218,0 z" />
      <text
         xml:space="preserve"
         style="font-style:normal;font-variant:normal;font-weight:600;font-stretch:normal;font-size:4.9389px;line-height:1.25;font-family:Muli;-inkscape-font-specification:'Muli, Semi-Bold';font-variant-ligatures:normal;font-variant-caps:normal;font-variant-numeric:normal;font-variant-east-asian:normal;text-align:center;letter-spacing:0px;word-spacing:0px;writing-mode:lr-tb;text-anchor:middle;fill:#ffffff;stroke-width:0.264583"
         x="18.386654"
         y="112.74636"
         id="text878-2-8-9"><tspan
           sodipodi:role="line"
           id="tspan2060"
           x="18.386654"
           y="112.74636">End User</tspan></text>
    </g>
    <ellipse
       style="fill:#2e3436;fill-opacity:0.982236;stroke:#000000;stroke-width:0.3;stroke-linecap:square;stroke-linejoin:round"
       id="path4667"
       cx="-81.153313"
       cy="79.958817"
       rx="11.244792"
       ry="3.3072915" />
    <ellipse
       style="display:inline;fill:#2e3436;fill-opacity:0.982236;stroke:#000000;stroke-width:0.3;stroke-linecap:square;stroke-linejoin:round"
       id="path4667-8"
       cx="-105.83334"
       cy="85.333366"
       rx="11.244792"
       ry="3.3072915" />
    <g
       id="g22257"
       transform="translate(31.144947)">
      <g
         id="g7988"
         transform="translate(257.5836,-2.7331419)">
        <g
           id="g6588"
           transform="translate(-0.75531121,-11.78505)">
          <path
             id="path4667-83"
             style="display:inline;fill:none;fill-opacity:0.982236;stroke:#000000;stroke-width:0.3;stroke-linecap:square;stroke-linejoin:round"
             d="m -73.421872,110.46878 a 11.244792,3.3072915 0 0 1 -11.244792,3.30729 11.244792,3.3072915 0 0 1 -11.244792,-3.30729 11.244792,3.3072915 0 0 1 11.244792,-3.30729 11.244792,3.3072915 0 0 1 11.244792,3.30729 z" />
          <path
             id="path4667-1"
             style="display:inline;fill:none;fill-opacity:0.982236;stroke:#000000;stroke-width:0.3;stroke-linecap:square;stroke-linejoin:round"
             d="m -73.421872,118.40628 c -3e-6,1.82657 -5.034467,3.30729 -11.244792,3.30729 -6.210325,0 -11.244789,-1.48072 -11.244792,-3.30729"
             sodipodi:nodetypes="csc" />
          <path
             style="fill:none;stroke:#000000;stroke-width:0.264583px;stroke-linecap:butt;stroke-linejoin:miter;stroke-opacity:1"
             d="m -95.917226,118.28887 c 0,-7.9375 0,-7.9375 0,-7.9375"
             id="path5107" />
          <path
             style="display:inline;fill:none;stroke:#000000;stroke-width:0.264583px;stroke-linecap:butt;stroke-linejoin:miter;stroke-opacity:1"
             d="m -73.400478,118.38695 c 0,-7.9375 0,-7.9375 0,-7.9375"
             id="path5107-8" />
        </g>
        <path
           id="path4667-83-3"
           style="display:inline;fill:none;fill-opacity:0.982236;stroke:#000000;stroke-width:0.3;stroke-linecap:butt;stroke-linejoin:round"
           d="m -75.353913,108.08678 c 0.75309,0.44395 1.176729,0.94471 1.17673,1.47456 3e-6,1.82657 -5.034467,3.30729 -11.244792,3.30729 -6.210325,0 -11.244795,-1.48072 -11.244792,-3.30729 10e-7,-0.54187 0.443065,-1.0533 1.228453,-1.50466"
           sodipodi:nodetypes="csssc" />
        <path
           id="path4667-1-8"
           style="display:inline;fill:none;fill-opacity:0.982236;stroke:#000000;stroke-width:0.3;stroke-linecap:square;stroke-linejoin:round"
           d="m -74.177183,117.49884 c -3e-6,1.82657 -5.034467,3.30729 -11.244792,3.30729 -6.210325,0 -11.244789,-1.48072 -11.244792,-3.30729"
           sodipodi:nodetypes="csc" />
        <path
           style="fill:none;stroke:#000000;stroke-width:0.264583px;stroke-linecap:butt;stroke-linejoin:miter;stroke-opacity:1"
           d="m -96.672537,117.38143 c 0,-7.9375 0,-7.9375 0,-7.9375"
           id="path5107-6" />
        <path
           style="display:inline;fill:none;stroke:#000000;stroke-width:0.264583px;stroke-linecap:butt;stroke-linejoin:miter;stroke-opacity:1"
           d="m -74.155789,117.47951 c 0,-7.9375 0,-7.9375 0,-7.9375"
           id="path5107-8-0" />
        <path
           style="fill:#3465a4;fill-opacity:0.982236;stroke:#000000;stroke-width:0.11689;stroke-linecap:square;stroke-linejoin:round"
           d="m -266.54036,212.29722 c -17.09393,-0.40464 -32.08956,-4.0331 -36.72664,-8.88667 -1.94706,-2.03797 -1.94276,-3.86888 0.0139,-5.9169 2.96483,-3.10325 10.06716,-5.73303 19.8059,-7.33351 17.35145,-2.85158 39.17631,-1.75701 52.27495,2.62171 5.15148,1.72208 8.72425,3.95985 9.79511,6.13508 0.31129,0.63232 0.35121,0.80761 0.35121,1.54245 0,0.73604 -0.0397,0.90969 -0.35383,1.54778 -1.06846,2.17036 -4.53279,4.33855 -9.74904,6.10156 -8.71999,2.94722 -21.91536,4.50798 -35.41157,4.1885 z"
           id="path7402"
           transform="matrix(0.26458333,0,0,0.26458333,-15.874992,45.645847)" />
        <path
           style="fill:#3465a4;fill-opacity:0.982236;stroke:#000000;stroke-width:0.058445;stroke-linecap:butt;stroke-linejoin:round"
           d="m -265.89604,253.44789 c -9.92899,-0.22083 -19.08473,-1.41826 -26.21783,-3.4289 -7.26811,-2.0487 -11.80923,-4.82191 -12.54661,-7.66207 -0.11043,-0.42537 -0.11057,-1.15977 -3e-4,-1.58917 0.1147,-0.44664 0.43122,-1.0779 0.76243,-1.52059 0.54948,-0.73443 1.67302,-1.72474 2.6793,-2.36158 l 0.29475,-0.18653 0.37534,0.21356 c 0.83976,0.4778 2.59618,1.26767 3.95257,1.77749 10.25203,3.85341 26.93975,5.61505 43.09697,4.54955 9.99903,-0.65939 18.77018,-2.33697 24.97367,-4.7765 1.00659,-0.39584 2.41254,-1.03639 3.13624,-1.42887 l 0.61053,-0.3311 0.29151,0.18447 c 1.00083,0.63332 2.14092,1.63795 2.67764,2.35951 0.33074,0.44464 0.64672,1.07614 0.76086,1.52059 0.11028,0.4294 0.11014,1.1638 -5.2e-4,1.58917 -0.48153,1.85474 -2.62522,3.72885 -6.11547,5.34641 -6.3617,2.94835 -16.78637,5.00346 -28.34493,5.58792 -3.13312,0.15842 -7.40762,0.22289 -10.38636,0.15664 z"
           id="path7667"
           transform="matrix(0.26458333,0,0,0.26458333,-15.874992,45.645847)" />
        <path
           style="fill:#16376d;fill-opacity:0.982236;stroke:#000000;stroke-width:0.058445;stroke-linecap:butt;stroke-linejoin:round"
           d="m -266.95272,242.30993 c -11.91347,-0.3428 -22.65729,-2.13356 -29.87046,-4.97876 -1.16934,-0.46125 -3.3377,-1.52204 -4.11151,-2.01141 -1.74274,-1.10214 -2.92431,-2.24727 -3.44679,-3.34048 -0.1084,-0.22679 -0.23107,-0.55153 -0.27261,-0.72163 -0.18098,-0.74102 -0.1913,-1.61444 -0.1748,-14.78571 l 0.0162,-12.93009 0.36027,0.42197 c 1.23729,1.44916 3.50844,2.91493 6.4437,4.15868 9.93704,4.21058 27.52468,6.23519 44.45776,5.11776 16.07753,-1.06096 28.54139,-4.69742 32.46431,-9.47178 l 0.26691,-0.32483 v 13.22403 c 0,7.38841 -0.0197,13.22402 -0.0445,13.22402 -0.0245,0 -0.0609,0.24501 -0.081,0.54447 -0.0449,0.67086 -0.12957,1.01161 -0.38328,1.54311 -0.52153,1.09261 -1.70494,2.23952 -3.44654,3.34026 -0.77506,0.48987 -2.94279,1.55159 -4.11667,2.01631 -6.6058,2.61507 -16.32623,4.35297 -27.26227,4.87415 -3.15299,0.15026 -7.61451,0.19155 -10.79872,0.0999 z"
           id="path7780"
           transform="matrix(0.26458333,0,0,0.26458333,-15.874992,45.645847)" />
        <path
           style="fill:#16376d;fill-opacity:0.982236;stroke:#000000;stroke-width:0.058445;stroke-linecap:butt;stroke-linejoin:round"
           d="m -265.92182,283.44759 c -13.86619,-0.31045 -26.16839,-2.54626 -33.23125,-6.03946 -3.413,-1.68802 -5.30254,-3.5372 -5.59354,-5.47405 -0.0379,-0.25221 -0.0614,-4.60786 -0.0748,-13.83839 l -0.0195,-13.47034 0.251,0.30053 c 4.14756,4.96597 17.56384,8.68404 34.46715,9.55192 4.38535,0.22516 10.13153,0.22472 14.56152,-0.001 15.097,-0.76963 27.70641,-3.88316 32.98361,-8.14433 0.48583,-0.39229 1.34532,-1.23972 1.61834,-1.59563 l 0.13839,-0.18041 5.7e-4,13.20846 c 5.1e-4,7.26466 -0.0192,13.20847 -0.0434,13.20847 -0.0242,0 -0.06,0.24935 -0.0795,0.55411 -0.0394,0.61399 -0.12684,1.01063 -0.31811,1.44312 -0.48389,1.09416 -1.77347,2.37906 -3.40735,3.395 -5.47862,3.40657 -15.93233,5.90569 -28.31528,6.76921 -4.08208,0.28467 -8.94556,0.40229 -12.93786,0.3129 z"
           id="path7856"
           transform="matrix(0.26458333,0,0,0.26458333,-15.874992,45.645847)" />
      </g>
      <text
         xml:space="preserve"
         style="font-style:normal;font-variant:normal;font-weight:600;font-stretch:normal;font-size:4.9389px;line-height:1.25;font-family:Muli;-inkscape-font-specification:'Muli, Semi-Bold';font-variant-ligatures:normal;font-variant-caps:normal;font-variant-numeric:normal;font-variant-east-asian:normal;text-align:center;letter-spacing:0px;word-spacing:0px;writing-mode:lr-tb;text-anchor:middle;display:inline;fill:#ffffff;stroke-width:0.264583"
         x="172.08939"
         y="115.09011"
         id="text878-2-8-9-4"><tspan
           sodipodi:role="line"
           id="tspan22159"
           x="172.08939"
           y="115.09011">DB</tspan></text>
    </g>
    <g
       id="g22724"
       transform="translate(-7.3560002)">
      <rect
         style="fill:#3465a4;fill-opacity:0.982236;stroke:none;stroke-width:0.3;stroke-linecap:butt;stroke-linejoin:round"
         id="rect22496"
         width="26.458332"
         height="50.270832"
         x="32.242035"
         y="78.718773" />
      <text
         xml:space="preserve"
         style="font-style:normal;font-variant:normal;font-weight:normal;font-stretch:normal;font-size:4.93889px;line-height:1.25;font-family:sans-serif;-inkscape-font-specification:'sans-serif, Normal';font-variant-ligatures:normal;font-variant-caps:normal;font-variant-numeric:normal;font-variant-east-asian:normal;text-align:center;letter-spacing:0px;word-spacing:0px;writing-mode:lr-tb;text-anchor:middle;display:inline;fill:#ffffff;stroke-width:0.264583"
         x="45.451908"
         y="102.12992"
         id="text42500-7"><tspan
           sodipodi:role="line"
           id="tspan22716"
           x="45.451908"
           y="102.12992">REST</tspan><tspan
           sodipodi:role="line"
           id="tspan22718"
           x="45.451908"
           y="108.30354">Adapter</tspan></text>
    </g>
    <g
       id="g22828"
       transform="translate(9.5747336)">
      <rect
         style="display:inline;fill:#3465a4;fill-opacity:0.982236;stroke:none;stroke-width:0.3;stroke-linecap:butt;stroke-linejoin:round"
         id="rect22496-9"
         width="26.458332"
         height="50.270832"
         x="151.08505"
         y="79.11425" />
      <text
         xml:space="preserve"
         style="font-style:normal;font-variant:normal;font-weight:normal;font-stretch:normal;font-size:4.93889px;line-height:1.25;font-family:sans-serif;-inkscape-font-specification:'sans-serif, Normal';font-variant-ligatures:normal;font-variant-caps:normal;font-variant-numeric:normal;font-variant-east-asian:normal;text-align:center;letter-spacing:0px;word-spacing:0px;writing-mode:lr-tb;text-anchor:middle;display:inline;fill:#ffffff;stroke-width:0.264583"
         x="164.29613"
         y="102.5254"
         id="text16993-4"><tspan
           sodipodi:role="line"
           id="tspan22820"
           x="164.29613"
           y="102.5254">Backend</tspan><tspan
           sodipodi:role="line"
           id="tspan22822"
           x="164.29613"
           y="108.69901">Adapter</tspan></text>
    </g>
  </g>
</svg>
